<svg aria-hidden="true" style="position: absolute; width: 0; height: 0; overflow: hidden;" version="1.1" xmlns="http://www.w3.org/2000/svg" xmlns:xlink="http://www.w3.org/1999/xlink">
<defs>
    <symbol id="icon-checkmark" viewBox="0 0 32 32">
    <path d="M21.82 13.030l-1.002-1.002c-0.185-0.185-0.484-0.185-0.668 0l-6.014 6.013-2.859-2.882c-0.186-0.185-0.484-0.185-0.67 0l-1.002 1.003c-0.185 0.185-0.185 0.484 0 0.668l4.193 4.223c0.185 0.184 0.484 0.184 0.668 0l7.354-7.354c0.186-0.185 0.186-0.484 0-0.669zM16 3c-7.18 0-13 5.82-13 13s5.82 13 13 13 13-5.82 13-13-5.82-13-13-13zM16 26c-5.522 0-10-4.478-10-10 0-5.523 4.478-10 10-10 5.523 0 10 4.477 10 10 0 5.522-4.477 10-10 10z"></path>
    </symbol>
    <symbol id="icon-chevron-circle-left" viewBox="0 0 24 28">
    <path d="M14.203 21.797l1.594-1.594c0.391-0.391 0.391-1.016 0-1.406l-4.797-4.797 4.797-4.797c0.391-0.391 0.391-1.016 0-1.406l-1.594-1.594c-0.391-0.391-1.016-0.391-1.406 0l-7.094 7.094c-0.391 0.391-0.391 1.016 0 1.406l7.094 7.094c0.391 0.391 1.016 0.391 1.406 0zM24 14c0 6.625-5.375 12-12 12s-12-5.375-12-12 5.375-12 12-12 12 5.375 12 12z"></path>
    </symbol>
    <symbol id="icon-chevron-circle-right" viewBox="0 0 24 28">
    <path d="M11.203 21.797l7.094-7.094c0.391-0.391 0.391-1.016 0-1.406l-7.094-7.094c-0.391-0.391-1.016-0.391-1.406 0l-1.594 1.594c-0.391 0.391-0.391 1.016 0 1.406l4.797 4.797-4.797 4.797c-0.391 0.391-0.391 1.016 0 1.406l1.594 1.594c0.391 0.391 1.016 0.391 1.406 0zM24 14c0 6.625-5.375 12-12 12s-12-5.375-12-12 5.375-12 12-12 12 5.375 12 12z"></path>
    </symbol>
    <symbol id="icon-menu" viewBox="0 0 32 32">
    <path d="M2 6h28v6h-28zM2 14h28v6h-28zM2 22h28v6h-28z"></path>
    </symbol>
    <symbol id="icon-cross" viewBox="0 0 32 32">
    <path d="M31.708 25.708c-0-0-0-0-0-0l-9.708-9.708 9.708-9.708c0-0 0-0 0-0 0.105-0.105 0.18-0.227 0.229-0.357 0.133-0.356 0.057-0.771-0.229-1.057l-4.586-4.586c-0.286-0.286-0.702-0.361-1.057-0.229-0.13 0.048-0.252 0.124-0.357 0.228 0 0-0 0-0 0l-9.708 9.708-9.708-9.708c-0-0-0-0-0-0-0.105-0.104-0.227-0.18-0.357-0.228-0.356-0.133-0.771-0.057-1.057 0.229l-4.586 4.586c-0.286 0.286-0.361 0.702-0.229 1.057 0.049 0.13 0.124 0.252 0.229 0.357 0 0 0 0 0 0l9.708 9.708-9.708 9.708c-0 0-0 0-0 0-0.104 0.105-0.18 0.227-0.229 0.357-0.133 0.355-0.057 0.771 0.229 1.057l4.586 4.586c0.286 0.286 0.702 0.361 1.057 0.229 0.13-0.049 0.252-0.124 0.357-0.229 0-0 0-0 0-0l9.708-9.708 9.708 9.708c0 0 0 0 0 0 0.105 0.105 0.227 0.18 0.357 0.229 0.356 0.133 0.771 0.057 1.057-0.229l4.586-4.586c0.286-0.286 0.362-0.702 0.229-1.057-0.049-0.13-0.124-0.252-0.229-0.357z"></path>
    </symbol>
    <symbol id="icon-mail" viewBox="0 0 32 32">
    <path d="M28 5h-24c-2.209 0-4 1.792-4 4v13c0 2.209 1.791 4 4 4h24c2.209 0 4-1.791 4-4v-13c0-2.208-1.791-4-4-4zM2 10.25l6.999 5.25-6.999 5.25v-10.5zM30 22c0 1.104-0.898 2-2 2h-24c-1.103 0-2-0.896-2-2l7.832-5.875 4.368 3.277c0.533 0.398 1.166 0.6 1.8 0.6 0.633 0 1.266-0.201 1.799-0.6l4.369-3.277 7.832 5.875zM30 20.75l-7-5.25 7-5.25v10.5zM17.199 18.602c-0.349 0.262-0.763 0.4-1.199 0.4s-0.851-0.139-1.2-0.4l-12.8-9.602c0-1.103 0.897-2 2-2h24c1.102 0 2 0.897 2 2l-12.801 9.602z"></path>
    </symbol>
    <symbol id="icon-earth" viewBox="0 0 32 32">
    <path d="M16 0c-8.837 0-16 7.163-16 16s7.163 16 16 16 16-7.163 16-16-7.163-16-16-16zM16 30c-1.967 0-3.84-0.407-5.538-1.139l7.286-8.197c0.163-0.183 0.253-0.419 0.253-0.664v-3c0-0.552-0.448-1-1-1-3.531 0-7.256-3.671-7.293-3.707-0.188-0.188-0.442-0.293-0.707-0.293h-4c-0.552 0-1 0.448-1 1v6c0 0.379 0.214 0.725 0.553 0.894l3.447 1.724v5.871c-3.627-2.53-6-6.732-6-11.489 0-2.147 0.484-4.181 1.348-6h3.652c0.265 0 0.52-0.105 0.707-0.293l4-4c0.188-0.188 0.293-0.442 0.293-0.707v-2.419c1.268-0.377 2.61-0.581 4-0.581 2.2 0 4.281 0.508 6.134 1.412-0.13 0.109-0.256 0.224-0.376 0.345-1.133 1.133-1.757 2.64-1.757 4.243s0.624 3.109 1.757 4.243c1.139 1.139 2.663 1.758 4.239 1.758 0.099 0 0.198-0.002 0.297-0.007 0.432 1.619 1.211 5.833-0.263 11.635-0.014 0.055-0.022 0.109-0.026 0.163-2.541 2.596-6.084 4.208-10.004 4.208z"></path>
    </symbol>
<symbol id="icon-circle-up" viewBox="0 0 32 32">
<path d="M0 16c0 8.837 7.163 16 16 16s16-7.163 16-16-7.163-16-16-16-16 7.163-16 16zM29 16c0 7.18-5.82 13-13 13s-13-5.82-13-13 5.82-13 13-13 13 5.82 13 13z"></path>
<path d="M22.086 20.914l2.829-2.829-8.914-8.914-8.914 8.914 2.828 2.828 6.086-6.086z"></path>
</symbol>
</defs>
</svg>
