<?xml version="1.0" standalone="no"?>
<!DOCTYPE svg PUBLIC "-//W3C//DTD SVG 20010904//EN"
 "http://www.w3.org/TR/2001/REC-SVG-20010904/DTD/svg10.dtd">
<svg version="1.0" xmlns="http://www.w3.org/2000/svg"
 width="626.000000pt" height="585.000000pt" viewBox="0 0 626.000000 585.000000"
 preserveAspectRatio="xMidYMid meet">

<g transform="translate(0.000000,585.000000) scale(0.100000,-0.100000)"
fill="#000000" stroke="none">
<path d="M4420 5279 c-30 -22 -57 -45 -59 -51 -2 -6 -17 -24 -32 -39 -28 -27
-28 -28 -9 -42 18 -13 17 -14 -18 -15 -20 -1 -50 -7 -67 -12 l-30 -10 33 5
c17 2 32 0 32 -5 0 -11 -4 -12 -75 -16 -27 -1 -49 -6 -48 -12 1 -5 -13 -12
-33 -15 -19 -3 -46 -15 -61 -27 -26 -21 -27 -21 -5 -27 20 -5 19 -8 -19 -35
l-41 -30 23 -25 c15 -17 18 -24 9 -21 -9 3 -25 -1 -35 -9 -19 -15 -19 -15 3
-8 28 8 28 0 -1 -28 -22 -20 -27 -54 -6 -41 5 3 9 -2 9 -10 0 -19 -21 -21 -38
-4 -36 36 15 175 91 248 25 25 76 61 114 80 64 33 68 38 71 73 2 22 -1 37 -8
37 -6 0 -8 5 -5 10 3 6 0 11 -7 11 -7 1 -20 2 -28 3 -8 1 -24 -4 -35 -11 -11
-7 -26 -13 -34 -13 -7 0 -19 -6 -25 -14 -17 -21 -146 -37 -170 -20 -15 10 -24
10 -55 -6 -20 -10 -43 -20 -51 -23 -8 -3 9 -3 39 0 39 5 52 3 47 -5 -4 -7 -17
-12 -29 -12 -66 -1 -91 1 -108 11 -13 7 -19 6 -19 -1 0 -7 -6 -10 -12 -7 -7 2
-12 9 -11 15 2 6 -6 9 -16 7 -11 -2 -22 3 -25 10 -3 9 -19 13 -46 11 -22 -2
-43 1 -46 6 -3 4 -13 8 -22 8 -12 -1 -8 -6 11 -16 15 -8 27 -22 27 -30 0 -9 5
-12 12 -8 7 5 8 3 3 -5 -8 -15 -172 -13 -192 2 -7 5 -27 4 -49 -3 -22 -8 -32
-15 -25 -20 7 -4 -1 -7 -18 -8 -17 0 -32 5 -35 14 -5 12 -1 14 17 10 l22 -6
-23 12 c-27 13 -72 -3 -72 -26 0 -9 23 -36 50 -62 55 -51 60 -69 30 -107 -11
-14 -19 -32 -18 -39 2 -9 -11 -13 -42 -14 -25 -1 -55 -5 -67 -9 -19 -6 -23 -4
-23 13 0 22 -26 38 -33 19 -2 -8 -16 -6 -46 7 -24 11 -37 22 -31 26 7 5 3 9
-10 13 -20 5 -22 11 -18 65 1 33 0 58 -4 55 -5 -2 -8 -9 -8 -15 0 -7 -16 -27
-36 -45 -27 -24 -32 -33 -19 -33 14 0 15 -3 5 -14 -9 -12 -7 -17 9 -28 12 -7
21 -21 21 -31 0 -10 -4 -15 -10 -12 -7 4 -7 -2 -1 -19 12 -29 1 -41 -44 -51
-29 -7 -29 -7 -10 8 20 16 20 16 -3 17 -14 0 -27 9 -34 25 -6 13 -15 22 -19
19 -5 -3 -9 -1 -9 4 0 5 -11 12 -25 14 -16 4 -25 1 -25 -8 0 -7 -8 -17 -17
-23 -17 -9 -17 -11 -1 -27 16 -16 17 -16 24 9 6 28 27 36 40 16 4 -7 -1 -16
-10 -21 -13 -7 -14 -13 -6 -29 8 -14 8 -20 -2 -23 -7 -2 -21 -7 -31 -10 -15
-5 -17 -2 -12 17 4 17 2 16 -10 -6 -11 -19 -22 -27 -32 -23 -11 5 -14 1 -10
-13 6 -23 -12 -53 -20 -33 -3 8 -11 1 -22 -19 -19 -36 -56 -46 -79 -22 -18 17
-71 8 -89 -14 -18 -23 -11 -49 25 -86 31 -32 36 -56 19 -84 -5 -8 -4 -13 2
-13 6 0 11 5 11 10 0 6 4 10 10 10 11 0 8 -49 -4 -68 -13 -21 -28 -14 -16 8
12 23 5 26 -15 8 -37 -33 -46 -38 -70 -38 -14 0 -25 6 -25 13 0 10 -13 13 -47
11 -44 -3 -46 -2 -29 11 17 13 17 15 3 15 -9 0 -23 10 -31 22 -9 12 -16 19
-16 14 0 -5 -7 -3 -15 4 -13 11 -14 10 -9 -5 6 -14 4 -16 -6 -10 -10 6 -12 4
-6 -10 4 -11 2 -22 -6 -26 -9 -6 -8 -12 5 -26 18 -20 40 -78 50 -130 5 -25 3
-33 -11 -36 -15 -4 -15 -5 1 -6 16 -1 18 -7 12 -43 -8 -47 -19 -66 -29 -49 -4
6 -12 11 -17 11 -6 0 -7 -5 -3 -12 5 -7 3 -8 -5 -3 -7 4 -10 16 -8 27 5 16 2
19 -13 15 -11 -3 -21 0 -24 7 -3 7 -8 6 -15 -4 -12 -17 -5 -55 15 -87 12 -20
11 -24 -8 -38 -25 -17 -42 -20 -33 -5 3 6 1 10 -5 10 -6 0 -8 5 -5 10 6 10 0
12 -47 14 -14 1 -24 -2 -21 -7 3 -5 -5 -7 -18 -5 -31 4 -33 20 -7 47 l21 24
-36 -7 c-25 -5 -37 -3 -37 4 0 6 4 9 9 5 5 -3 12 -1 15 4 3 5 -3 11 -14 14
-13 3 -18 11 -14 20 3 9 -2 16 -15 20 -15 3 -18 1 -14 -12 3 -11 0 -10 -11 4
-8 11 -20 26 -26 33 -6 6 -7 12 -3 12 4 0 2 5 -4 11 -8 8 -15 8 -25 -1 -16
-15 -12 -100 5 -100 6 0 -3 -11 -21 -23 -31 -24 -32 -24 -9 -35 12 -6 34 -13
50 -16 31 -7 37 -26 7 -26 -24 0 -53 -44 -76 -115 -33 -98 -95 -195 -125 -195
-5 0 -9 -7 -9 -15 0 -19 -4 -19 -38 1 -21 13 -19 9 8 -14 l35 -30 -23 -24
c-12 -14 -22 -32 -22 -42 0 -30 30 -14 53 29 12 22 25 42 28 45 4 3 19 28 34
55 15 28 34 56 43 62 9 7 16 21 17 30 5 51 17 120 23 128 12 16 47 41 38 28
-4 -8 -1 -13 8 -13 9 0 16 5 16 10 0 6 3 9 8 9 33 -5 44 2 38 26 -6 23 -5 24
17 14 30 -14 55 -55 63 -107 6 -38 4 -43 -17 -51 -13 -5 -18 -10 -11 -10 7 -1
10 -6 6 -12 -3 -6 -1 -15 6 -19 6 -4 10 -16 8 -25 -3 -17 -4 -17 -19 -2 -15
15 -16 12 -11 -29 5 -49 1 -53 -28 -24 -11 11 -26 20 -32 20 -7 -1 -2 -7 12
-15 14 -8 21 -15 15 -15 -5 0 -3 -5 5 -10 40 -25 10 -104 -69 -178 -54 -50
-58 -53 -101 -48 -118 13 -148 26 -92 42 20 5 23 8 10 11 -15 4 -16 8 -7 25 6
11 8 23 4 26 -3 3 -8 -3 -11 -15 -9 -33 -43 -36 -72 -8 -14 14 -28 25 -31 25
-11 0 -31 63 -31 97 0 16 6 51 14 77 14 45 14 47 -3 32 -10 -9 -32 -16 -49
-16 -21 0 -32 -6 -36 -18 -4 -11 -18 -25 -32 -33 -14 -7 -37 -27 -51 -43 -19
-23 -34 -30 -64 -32 -22 -1 -40 -5 -41 -10 -3 -13 60 -53 101 -64 54 -15 73
-48 65 -112 l-7 -53 -15 35 c-24 60 -84 110 -132 110 -28 0 -26 -7 19 -56 38
-40 39 -44 28 -74 -8 -22 -17 -30 -29 -27 -9 3 -19 0 -20 -5 -3 -7 -11 -7 -25
0 -16 9 -23 9 -27 -1 -4 -8 -8 -9 -11 -1 -4 7 -23 10 -52 6 -29 -3 -44 -1 -40
5 4 6 -11 10 -34 11 -22 1 -48 6 -56 11 -23 13 -53 1 -53 -20 0 -35 49 -116
92 -153 l42 -36 -35 6 c-28 5 -22 0 30 -26 46 -24 67 -41 75 -61 7 -21 19 -30
41 -33 156 -22 168 -26 212 -70 44 -44 57 -73 27 -62 -9 3 -18 6 -20 6 -3 0
-8 10 -13 23 -7 18 -16 23 -39 21 -20 -1 -37 5 -48 17 -19 22 -50 25 -57 7 -3
-10 -7 -10 -18 -2 -21 16 -51 26 -44 14 3 -6 13 -10 21 -10 8 0 14 -7 14 -16
0 -8 -5 -12 -10 -9 -6 4 -32 8 -57 9 -26 2 -49 8 -51 14 -2 7 -8 12 -13 12 -4
0 -6 -7 -3 -15 7 -17 -11 -21 -21 -5 -3 5 -11 10 -16 10 -6 0 -8 -3 -6 -7 3
-5 -13 -8 -35 -9 -30 0 -46 -6 -59 -23 -11 -13 -19 -18 -19 -11 0 6 9 23 20
37 11 15 19 27 18 29 -2 1 -23 4 -47 7 -24 2 -46 9 -50 14 -3 5 -19 13 -34 17
-15 4 -25 10 -22 15 6 11 -18 21 -51 21 -13 0 -24 4 -24 10 0 12 -53 40 -76
40 -43 0 23 -110 121 -203 l30 -29 -27 6 c-36 8 -36 -8 0 -23 15 -6 45 -27 66
-46 22 -19 42 -32 46 -30 3 2 6 -5 6 -16 -1 -15 13 -25 64 -43 104 -37 206
-93 265 -148 54 -49 69 -77 69 -128 0 -21 -4 -25 -27 -22 -17 2 -27 -1 -27
-10 -1 -10 -4 -9 -13 3 -7 8 -39 35 -72 59 -33 25 -62 48 -65 51 -3 3 -20 14
-37 24 -18 11 -33 23 -33 27 0 4 -6 8 -13 8 -8 0 -22 9 -32 20 -9 10 -46 38
-81 61 -60 39 -66 41 -94 29 -42 -17 -38 -34 6 -27 50 8 81 -10 189 -108 50
-45 109 -92 133 -105 44 -25 51 -35 30 -43 -11 -5 34 -11 54 -8 4 0 4 -7 1
-16 -4 -11 -3 -14 5 -9 7 4 12 2 12 -3 0 -6 5 -11 10 -11 6 0 10 6 10 13 0 6
11 13 25 13 27 2 34 -13 10 -22 -8 -4 -15 -13 -15 -21 0 -13 -3 -13 -24 1 -14
9 -27 12 -30 7 -3 -5 4 -11 16 -15 14 -3 19 -9 13 -14 -16 -14 -101 -43 -116
-39 -8 2 -11 2 -6 0 4 -3 5 -9 1 -14 -3 -5 -15 -3 -27 6 -12 8 -30 15 -40 15
-11 0 -38 10 -61 23 -46 25 -48 26 -96 68 -19 17 -47 37 -61 44 -27 15 -91 88
-102 118 -3 9 -11 17 -17 17 -5 0 -10 20 -10 45 0 35 4 47 21 56 21 11 21 11
-7 37 -15 15 -33 27 -39 27 -5 1 -17 4 -25 7 -46 19 -55 16 -58 -21 -3 -50 15
-89 51 -108 29 -15 30 -16 12 -29 -22 -16 -81 -19 -90 -4 -13 20 -72 11 -99
-16 -21 -21 -25 -33 -20 -58 3 -17 6 -43 6 -58 -1 -16 4 -28 9 -28 5 0 7 -10
4 -22 -3 -14 3 -39 16 -63 12 -22 28 -52 36 -67 8 -16 23 -29 34 -29 10 -1 23
-2 28 -3 4 0 21 -17 37 -36 16 -19 33 -38 38 -41 4 -4 0 -11 -9 -17 -15 -8 -8
-13 39 -26 31 -9 61 -14 67 -10 6 3 13 -3 16 -14 2 -11 14 -23 26 -26 16 -4
18 -8 9 -19 -6 -7 -9 -23 -5 -35 3 -15 1 -22 -8 -23 -30 -3 -53 3 -66 17 -15
15 -48 20 -39 5 10 -16 -42 1 -63 20 -12 11 -21 16 -21 12 0 -4 -5 -2 -11 4
-13 13 -67 -11 -76 -34 -9 -22 46 -122 99 -180 45 -49 48 -51 64 -35 13 12 19
13 22 4 2 -6 10 -12 18 -12 8 0 11 6 8 15 -5 12 2 15 33 15 50 0 103 -18 103
-35 0 -27 -130 -82 -164 -69 -9 3 -16 2 -16 -4 0 -10 -57 -41 -74 -40 -13 0
-26 -24 -26 -49 0 -13 -4 -23 -10 -23 -20 0 -9 -29 35 -88 49 -67 79 -82 170
-82 l50 0 -3 -100 c-3 -87 0 -107 18 -145 12 -25 26 -45 32 -45 5 0 24 -11 42
-25 32 -24 35 -25 69 -10 30 12 50 13 114 4 80 -10 208 -45 231 -62 22 -17 5
-19 -30 -4 -70 30 -107 36 -221 39 -108 3 -120 1 -133 -16 -32 -45 -6 -118 44
-123 68 -6 185 -27 228 -40 42 -12 58 -13 87 -4 41 14 50 23 68 73 12 35 11
40 -9 68 l-22 30 27 6 c82 18 105 27 160 63 46 29 64 48 76 80 21 51 21 75 2
91 -24 20 -10 24 18 5 14 -9 56 -18 94 -22 95 -7 168 21 240 93 44 44 53 59
53 88 0 59 -28 115 -67 135 l-35 18 35 21 36 21 25 -33 c31 -42 82 -66 136
-66 55 0 101 23 144 70 50 56 55 98 22 181 -6 12 2 15 42 15 59 0 107 26 140
75 19 28 23 44 20 92 -2 48 -1 56 12 51 42 -20 86 -15 130 14 92 59 130 159
96 258 -20 61 -20 64 4 64 45 0 105 35 162 95 27 29 66 130 54 142 -3 3 -1 14
5 24 6 13 7 31 1 53 -10 33 -9 34 26 39 40 7 82 42 82 69 0 11 4 17 9 14 10
-7 21 52 21 120 l0 51 46 6 c82 9 133 81 155 220 11 73 14 78 33 72 55 -17 67
-16 110 9 79 46 201 255 221 376 5 32 8 36 39 38 102 7 250 95 305 181 41 63
58 159 36 202 l-15 27 58 -5 c47 -4 65 -1 102 19 51 28 108 96 117 140 4 19
18 38 42 53 20 12 48 36 63 51 40 43 97 143 110 192 9 38 13 42 32 35 36 -13
110 -9 134 8 21 15 21 17 5 30 -10 9 -14 9 -10 2 10 -17 -39 -29 -57 -14 -7 6
-15 8 -19 5 -3 -3 -10 3 -16 15 -9 16 -7 27 8 55 11 19 17 37 14 40 -8 7 -33
-13 -33 -26 0 -13 -26 -38 -39 -38 -24 0 -59 24 -74 50 -22 36 -21 70 0 115
15 31 15 37 3 45 -8 6 -23 10 -33 10 -15 0 -16 -3 -7 -20 9 -16 8 -18 -5 -14
-8 4 -15 1 -15 -5 0 -6 -7 -11 -16 -11 -9 0 -33 -10 -53 -22 l-36 -23 30 -6
c17 -3 38 -2 48 3 10 5 17 5 17 -1 0 -23 -130 -35 -138 -13 -2 6 3 12 12 12
10 0 13 6 10 15 -4 8 -10 15 -16 15 -5 0 -6 -5 -2 -12 4 -7 3 -8 -4 -4 -18 11
-14 30 11 58 12 14 31 35 42 48 l20 23 -28 -7 -28 -7 16 32 c9 17 12 28 6 25
-6 -4 -11 0 -11 8 0 23 -6 20 -47 -25 -72 -79 -86 -91 -95 -77 -12 20 -9 31 7
24 10 -3 20 5 30 24 9 17 20 30 25 30 6 0 10 6 10 14 0 7 12 31 26 52 l26 39
-27 -25 c-22 -20 -27 -21 -22 -7 4 10 7 23 7 28 0 6 4 8 9 4 5 -3 12 -1 16 5
3 5 23 10 43 10 l37 0 -38 20 c-20 11 -38 20 -39 19 -2 0 -28 -19 -58 -40z m1
-92 c-10 -9 -11 -8 -5 6 3 10 9 15 12 12 3 -3 0 -11 -7 -18z m-987 -60 c14 -8
23 -17 19 -20 -3 -4 -12 -2 -20 4 -7 6 -22 9 -34 6 -16 -4 -18 -3 -8 9 14 17
11 17 43 1z m131 4 c14 -6 4 -10 -38 -12 -31 -2 -57 -1 -57 3 0 17 61 22 95 9z
m240 -89 c95 -11 187 -42 150 -50 -11 -2 -29 -13 -39 -24 -16 -17 -28 -19 -70
-15 -28 3 -70 1 -94 -5 -31 -8 -50 -8 -68 1 -23 10 -24 9 -18 -13 3 -13 1 -27
-6 -31 -6 -4 -8 -15 -5 -25 3 -11 0 -20 -10 -24 -8 -3 -15 -1 -15 5 0 8 -16 8
-59 0 -3 -1 4 -8 15 -16 10 -8 16 -15 12 -16 -5 -1 -12 -3 -18 -4 -5 -1 -15
-3 -21 -4 -5 0 -7 -6 -4 -12 4 -6 22 -8 46 -4 44 8 52 -6 13 -23 -17 -8 -31
-9 -44 -2 -24 13 -30 13 -30 0 0 -5 8 -10 18 -10 10 0 27 -6 37 -14 16 -12 17
-16 6 -30 -11 -14 -11 -16 3 -16 9 0 16 -4 16 -10 0 -5 -4 -10 -10 -10 -5 0
-10 -10 -10 -22 0 -31 -15 -52 -32 -46 -7 3 -24 -3 -37 -13 -13 -11 -18 -19
-12 -19 6 0 11 -4 11 -10 0 -5 -12 -10 -27 -10 -14 0 -23 -3 -19 -7 3 -4 -6
-12 -21 -18 -23 -10 -29 -9 -35 4 -5 12 -7 11 -7 -6 -1 -13 -5 -23 -10 -23 -6
0 -9 12 -7 28 1 15 -2 37 -8 50 -8 19 -6 25 12 38 12 8 22 24 22 35 0 12 4 17
11 14 11 -8 3 -62 -13 -82 -6 -8 -7 -13 -1 -13 8 0 53 86 53 103 0 3 5 18 11
34 6 15 10 28 9 28 -2 0 5 17 14 39 21 49 20 53 -4 31 -18 -16 -20 -16 -20 -2
0 10 5 17 10 17 6 0 10 11 10 24 0 18 6 25 23 28 14 2 22 10 22 23 0 14 6 19
19 17 17 -3 18 -2 7 12 -26 31 -49 12 -42 -36 1 -8 -20 -5 -39 6 -11 7 -12 6
-4 -3 8 -9 5 -24 -12 -59 -13 -26 -24 -55 -24 -64 0 -20 -30 -79 -48 -93 -7
-5 -14 -21 -17 -34 -6 -32 -7 -33 -61 -39 -45 -5 -46 -4 -39 19 4 13 13 27 19
31 7 5 4 8 -6 8 -22 0 -22 -4 1 61 22 62 65 141 86 159 8 7 15 21 15 31 0 13
7 19 24 19 13 0 43 9 67 20 24 11 60 20 81 20 28 0 42 7 61 30 14 16 29 39 32
50 6 20 7 20 23 1 13 -14 40 -21 107 -29z m40 38 c3 -5 2 -10 -4 -10 -5 0 -13
5 -16 10 -3 6 -2 10 4 10 5 0 13 -4 16 -10z m485 0 c0 -13 -51 -62 -58 -55 -3
2 1 11 8 20 24 29 -4 15 -63 -31 -35 -28 -62 -43 -66 -37 -3 7 -13 1 -24 -13
-10 -13 -13 -24 -7 -24 5 0 10 5 10 12 0 6 2 9 5 6 12 -12 -15 -56 -46 -76
-25 -15 -36 -18 -41 -9 -11 17 -10 29 2 22 5 -3 18 2 29 11 19 17 19 17 -6 37
l-25 20 33 19 c19 11 26 17 16 14 -11 -4 -16 -2 -11 5 3 6 15 9 25 6 23 -6 24
-3 3 17 -14 15 -14 17 1 22 10 4 21 1 26 -7 6 -10 9 -10 9 -1 0 19 20 14 21
-5 1 -15 2 -16 6 -2 3 14 21 26 67 47 5 3 6 0 2 -6 -4 -7 8 -6 31 3 47 17 53
18 53 5z m-133 -6 c-3 -3 -12 -4 -19 -1 -8 3 -5 6 6 6 11 1 17 -2 13 -5z m53
-110 c0 -8 -4 -12 -10 -9 -5 3 -10 1 -10 -5 0 -14 -115 -130 -154 -155 l-29
-19 13 24 c7 14 23 34 35 46 12 11 24 25 26 30 6 14 110 104 120 104 5 0 9 -7
9 -16z m-1216 -50 c3 -8 2 -12 -4 -9 -6 3 -10 10 -10 16 0 14 7 11 14 -7z
m1636 -49 l23 -25 -24 0 c-30 0 -103 -33 -146 -66 l-33 -25 0 24 c0 13 9 32
19 41 18 16 118 74 132 75 3 1 16 -10 29 -24z m-203 -6 c21 -18 11 -71 -31
-156 -44 -88 -82 -122 -131 -118 -20 2 -43 9 -51 16 -8 6 -14 8 -15 3 0 -5 -4
0 -8 11 -5 11 -4 25 2 33 5 7 11 27 13 44 8 67 69 158 119 178 26 11 82 5 102
-11z m-1440 -38 c-7 -2 -17 -10 -24 -18 -8 -10 -16 -12 -28 -5 -16 8 -15 11 6
27 15 11 17 15 7 12 -26 -9 -22 12 5 22 17 7 24 4 34 -13 9 -16 9 -22 0 -25z
m1601 -97 c-14 -50 -51 -87 -100 -99 -33 -8 -44 17 -29 73 12 44 44 82 87 105
28 15 30 14 42 -8 10 -19 10 -33 0 -71z m-1707 49 c13 -16 12 -17 -3 -4 -17
13 -22 21 -14 21 2 0 10 -8 17 -17z m-17 -21 c3 -5 -1 -9 -9 -9 -8 0 -15 4
-15 9 0 4 4 8 9 8 6 0 12 -4 15 -8z m966 2 c0 -3 -9 -19 -20 -34 -11 -16 -19
-32 -18 -37 4 -14 -31 -70 -48 -77 -9 -3 -22 -2 -28 3 -7 6 -17 5 -29 -4 -16
-11 -16 -13 -1 -26 15 -13 14 -15 -17 -21 -19 -3 -45 -10 -59 -14 l-25 -7 26
29 c15 16 35 42 45 59 24 37 92 108 119 123 22 12 55 16 55 6z m-1272 -38 c-7
-8 -17 -12 -22 -9 -4 3 -2 9 5 14 22 13 31 11 17 -5z m82 -16 c0 -5 -4 -10
-10 -10 -5 0 -10 5 -10 10 0 6 5 10 10 10 6 0 10 -4 10 -10z m320 -50 c0 -5
-2 -10 -4 -10 -3 0 -8 5 -11 10 -3 6 -1 10 4 10 6 0 11 -4 11 -10z m380 -45
c0 -13 -42 -45 -51 -39 -8 4 -7 9 2 15 11 7 10 9 -4 9 -10 0 -15 5 -12 10 6
10 65 14 65 5z m630 -15 c0 -5 6 -7 14 -4 18 7 46 -33 39 -55 -3 -9 -13 -24
-20 -33 -8 -9 -12 -22 -8 -28 8 -14 -23 -39 -48 -40 -10 0 -17 5 -15 12 2 6
-6 21 -19 34 -29 29 -39 70 -22 90 22 27 79 44 79 24z m-890 -25 c-16 -19 -30
-19 -30 1 0 8 4 13 9 9 5 -3 13 0 16 6 4 5 9 8 12 5 3 -3 0 -12 -7 -21z m977
-27 c-3 -7 -5 -2 -5 12 0 14 2 19 5 13 2 -7 2 -19 0 -25z m161 21 c-2 -6 -8
-10 -13 -10 -5 0 -11 4 -13 10 -2 6 4 11 13 11 9 0 15 -5 13 -11z m-168 -54
c0 -8 -4 -15 -10 -15 -5 0 -7 7 -4 15 4 8 8 15 10 15 2 0 4 -7 4 -15z m-1085
-3 c49 -17 58 -28 51 -66 -8 -44 -33 -60 -68 -42 -20 11 -25 11 -25 0 0 -8 9
-14 19 -14 10 0 18 -4 18 -10 0 -5 -10 -10 -22 -10 -13 0 -34 -3 -48 -6 l-25
-5 25 15 c24 15 24 15 3 16 -12 0 -29 -7 -37 -16 -12 -11 -16 -12 -16 -2 0 8
-14 14 -36 15 -41 2 -39 1 -48 30 -17 55 128 121 209 95z m398 -43 c18 -23 23
-69 7 -69 -5 0 -10 -11 -10 -24 0 -14 -5 -28 -10 -31 -6 -4 -7 -11 -4 -17 4
-6 2 -8 -3 -5 -6 4 -18 -2 -28 -13 -11 -12 -31 -20 -50 -20 -18 0 -38 -7 -45
-15 -11 -13 -15 -13 -21 -3 -7 10 -9 9 -9 -4 0 -14 -7 -17 -39 -14 -21 2 -44
0 -52 -5 -8 -4 -19 -3 -26 3 -10 8 -13 7 -13 -3 -1 -8 -8 -2 -16 13 -14 26
-13 32 13 84 28 58 84 112 144 139 48 22 138 13 162 -16z m460 -50 c-5 -56 -7
-59 -26 -53 -16 5 -18 2 -12 -16 6 -18 4 -20 -12 -11 -20 12 -103 40 -103 36
0 -2 6 -10 14 -18 8 -8 16 -23 18 -33 6 -34 21 -44 41 -27 9 9 17 14 18 12 6
-38 5 -70 -2 -75 -5 -3 -9 4 -9 15 0 12 -6 21 -14 21 -8 0 -12 -9 -11 -25 2
-14 -1 -23 -6 -19 -5 3 -9 14 -9 26 0 17 -3 18 -15 8 -12 -10 -15 -7 -21 15
-3 14 -4 29 -1 32 9 9 -12 43 -26 42 -9 0 -9 -2 1 -6 25 -10 11 -31 -25 -36
-20 -4 -39 -5 -41 -2 -2 2 11 19 30 39 24 27 48 40 93 51 33 8 69 24 80 35 25
25 41 20 38 -11z m-1210 4 c4 -4 32 -5 62 -4 56 3 66 -6 46 -38 -12 -18 9 -71
29 -72 10 0 11 -2 2 -6 -6 -2 -10 -9 -6 -14 3 -5 -1 -18 -9 -29 -14 -20 -14
-20 -35 0 -12 11 -26 20 -32 20 -5 0 -10 4 -10 9 0 11 -79 66 -107 75 -10 3
-38 7 -61 8 -23 1 -42 4 -42 8 0 9 31 36 50 43 22 8 106 8 113 0z m402 -43
c-44 -43 -56 -49 -48 -22 5 17 59 59 78 61 6 0 -8 -17 -30 -39z m-560 -58 c6
-4 17 -16 25 -26 15 -19 14 -19 -17 -2 -18 9 -33 21 -33 26 0 12 11 13 25 2z
m1180 -31 c-3 -5 -1 -12 5 -16 16 -10 11 -44 -9 -62 -11 -9 -18 -20 -15 -24 2
-4 -5 -5 -16 -2 -16 4 -18 8 -9 19 9 11 7 14 -9 14 -15 0 -19 5 -15 20 3 11
12 20 21 20 8 0 12 3 9 7 -9 9 12 33 30 33 8 0 12 -4 8 -9z m178 -48 c-7 -17
-55 -64 -61 -59 -8 8 12 36 26 36 8 0 13 3 9 6 -6 7 13 33 25 34 4 0 4 -8 1
-17z m347 8 c0 -5 -13 -11 -30 -13 -29 -4 -37 1 -23 15 10 10 53 8 53 -2z
m-1916 -26 c3 -8 1 -15 -4 -15 -6 0 -10 7 -10 15 0 8 2 15 4 15 2 0 6 -7 10
-15z m1906 -5 c0 -5 -12 -17 -27 -26 -16 -9 -40 -25 -55 -35 -15 -11 -35 -19
-45 -19 -14 0 -15 -2 -4 -9 10 -7 8 -9 -10 -9 -13 0 -36 -4 -51 -7 -23 -6 -28
-4 -28 12 0 29 20 45 39 30 12 -10 14 -9 8 6 -5 12 -1 17 12 17 10 0 21 3 25
8 8 7 103 39 124 41 6 1 12 -3 12 -9z m-639 -36 c15 -19 -7 -74 -30 -74 -9 0
-40 16 -70 35 l-54 34 41 7 c23 3 41 9 40 13 -2 17 4 19 31 10 17 -6 35 -17
42 -25z m-1066 9 c-4 -10 -8 -29 -9 -42 -1 -13 -7 -26 -15 -29 -9 -3 -11 0 -6
8 4 7 2 16 -6 21 -11 7 -11 9 -1 9 7 0 10 5 7 10 -7 12 12 40 27 40 6 0 7 -8
3 -17z m1295 13 c0 -3 -4 -8 -10 -11 -5 -3 -10 -1 -10 4 0 6 5 11 10 11 6 0
10 -2 10 -4z m-1260 -91 c-7 -8 -17 -15 -22 -15 -6 0 -5 7 2 15 7 8 17 15 22
15 6 0 5 -7 -2 -15z m865 -16 c10 -14 1 -21 -19 -13 -9 3 -13 10 -10 15 7 12
21 11 29 -2z m-1183 -33 c15 -3 37 -16 48 -28 22 -24 28 -63 8 -55 -79 31 -98
41 -98 49 0 5 -10 23 -21 40 l-22 30 29 -15 c16 -8 41 -17 56 -21z m306 13
c37 -12 62 -27 62 -35 0 -8 6 -14 14 -14 15 0 30 -27 27 -47 -1 -7 3 -13 8
-13 6 0 2 -18 -10 -39 -13 -25 -29 -40 -44 -44 -14 -2 -25 0 -25 4 0 5 -8 9
-17 8 -11 0 -13 -3 -5 -6 31 -12 5 -19 -73 -19 -47 1 -85 5 -85 9 0 5 -4 6 -9
2 -5 -3 -13 0 -17 6 -5 8 -9 8 -14 -2 -16 -24 -45 21 -45 69 0 39 5 48 40 79
41 37 88 62 116 63 8 0 43 -9 77 -21z m997 -1 c16 3 25 0 25 -8 0 -9 -13 -11
-45 -8 -41 5 -44 4 -43 -16 2 -17 8 -21 30 -20 42 3 44 -15 3 -32 -28 -11 -40
-12 -51 -3 -7 6 -12 15 -9 19 3 4 -9 10 -25 14 -17 3 -30 11 -30 19 0 7 -12
18 -27 25 -25 11 -23 11 21 7 27 -3 54 -1 60 4 17 14 61 17 64 5 2 -6 14 -9
27 -6z m-514 -15 c18 -11 27 -23 24 -32 -3 -8 -1 -17 5 -21 20 -12 -26 -100
-52 -100 -5 0 -7 4 -4 9 9 13 -36 1 -55 -15 -8 -8 -28 -15 -42 -16 -15 -1 -27
-5 -27 -8 0 -3 -12 -6 -28 -8 -15 -1 -36 -3 -47 -5 -16 -1 -20 4 -21 28 -2 48
22 82 94 135 73 54 105 61 153 33z m352 -50 c12 -11 -13 -31 -33 -26 -33 9
-24 23 21 32 3 0 9 -2 12 -6z m413 -29 c-8 -29 -29 -54 -45 -54 -6 0 -11 -8
-12 -17 0 -13 -2 -14 -6 -4 -4 9 -8 10 -12 3 -4 -6 -23 -13 -44 -15 -33 -4
-37 -2 -37 19 0 34 31 61 63 55 15 -3 77 23 77 31 0 4 5 8 11 8 7 0 9 -10 5
-26z m-427 -95 c33 -7 47 -6 59 3 12 10 14 10 8 0 -4 -7 0 -15 11 -19 18 -7
63 -51 63 -62 0 -3 15 -13 33 -21 25 -11 28 -15 14 -18 -10 -2 -26 3 -35 11
-9 8 -23 12 -30 10 -7 -3 -20 1 -28 8 -21 17 -80 40 -121 46 -27 4 -33 10 -33
29 0 27 0 27 59 13z m-389 -9 c0 -5 -2 -10 -4 -10 -3 0 -8 5 -11 10 -3 6 -1
10 4 10 6 0 11 -4 11 -10z m265 -1 c7 -10 -21 -38 -37 -39 -12 0 -9 25 4 38
15 15 25 15 33 1z m596 -68 c-7 -12 -17 -21 -24 -21 -7 -1 -25 -11 -41 -24
-24 -20 -31 -22 -43 -11 -18 18 -17 22 13 50 16 15 39 25 55 25 16 0 29 5 29
12 0 9 3 9 11 1 8 -8 8 -17 0 -32z m-1037 -66 c3 -9 0 -15 -9 -15 -8 0 -15 -6
-15 -13 0 -7 -12 -18 -27 -25 -22 -9 -23 -11 -5 -8 12 2 20 0 16 -5 -8 -13
-42 -11 -47 4 -6 19 -53 -10 -77 -47 -22 -35 -25 -31 -10 11 l10 28 -19 -22
c-13 -16 -25 -20 -41 -16 -18 5 -22 3 -18 -8 4 -9 -1 -15 -11 -16 -69 -3 -123
-12 -136 -23 -22 -18 -27 -8 -10 17 8 11 27 24 42 28 16 3 37 15 48 25 44 40
130 77 182 79 28 1 64 6 80 11 40 12 40 12 47 -5z m406 -11 c0 -8 4 -13 9 -9
5 3 20 -9 32 -27 13 -18 27 -36 31 -39 4 -3 6 -20 4 -37 -2 -18 0 -32 5 -32 6
0 6 -42 0 -81 -1 -4 -10 -9 -21 -12 -12 -3 -17 -1 -14 5 3 5 1 21 -5 36 -5 15
-12 47 -15 72 -2 25 -7 54 -11 65 -6 16 -5 17 4 5 6 -9 11 -10 11 -3 0 6 -11
20 -25 31 -25 20 -33 42 -15 42 6 0 10 -7 10 -16z m-52 -7 c-1 -3 6 -16 18
-29 32 -34 61 -218 35 -218 -5 0 -11 -11 -13 -24 -4 -18 -1 -23 10 -18 12 4
14 0 8 -24 -11 -46 -25 -54 -70 -44 -33 7 -58 28 -61 50 0 3 -7 16 -15 30 -7
14 -15 61 -18 105 -3 75 -2 83 26 127 19 29 39 48 54 50 25 4 32 3 26 -5z
m562 3 c0 -5 -2 -10 -4 -10 -3 0 -8 5 -11 10 -3 6 -1 10 4 10 6 0 11 -4 11
-10z m-1446 -36 c9 -3 16 -15 16 -26 0 -10 -4 -16 -10 -13 -9 6 -14 -8 -11
-27 0 -5 -7 -8 -17 -8 -10 0 -23 -5 -30 -12 -7 -7 -12 -9 -12 -5 0 4 -16 0
-36 -8 -20 -8 -40 -12 -45 -9 -13 7 -11 -10 2 -23 8 -8 4 -11 -13 -10 -55 4
-10 88 67 123 53 25 64 27 89 18z m-514 -56 c0 -26 -6 -36 -28 -46 -23 -11
-29 -10 -39 4 -16 22 -1 57 28 65 38 11 39 11 39 -23z m1272 -30 c-7 -7 -12
-8 -12 -2 0 6 3 14 7 17 3 4 9 5 12 2 2 -3 -1 -11 -7 -17z m-572 -28 c0 -5 -5
-10 -11 -10 -5 0 -7 5 -4 10 3 6 8 10 11 10 2 0 4 -4 4 -10z m985 -58 c-3 -3
1 -12 9 -21 21 -23 24 -56 6 -56 -9 0 -14 7 -12 17 1 10 -6 26 -17 37 -24 24
-18 60 5 40 8 -7 12 -14 9 -17z m-493 -15 c-8 -10 -4 -16 17 -25 27 -12 47
-53 33 -67 -3 -3 -7 -11 -8 -18 -7 -41 -19 -53 -49 -46 -16 4 -24 7 -16 8 11
1 10 5 -5 16 -10 8 -14 15 -8 15 6 0 10 23 9 60 -2 47 1 63 14 69 20 12 27 5
13 -12z m-1179 -12 c53 -15 97 -60 97 -98 0 -9 3 -17 8 -17 4 0 8 -11 8 -25 2
-28 2 -28 -20 -19 -9 3 -16 15 -16 26 0 12 -11 31 -25 44 -14 13 -25 32 -25
44 0 11 -5 20 -11 20 -7 0 -9 -10 -5 -24 6 -24 5 -25 -46 -23 -43 2 -53 -1
-51 -14 2 -12 -6 -15 -42 -14 -42 2 -44 1 -30 -15 8 -9 15 -19 15 -23 0 -8
-49 1 -72 14 -30 16 -36 0 -9 -21 31 -22 35 -45 9 -47 -13 -1 -18 3 -15 12 3
7 -3 21 -13 30 -11 10 -19 20 -18 24 1 3 -2 14 -7 24 -11 25 19 54 90 88 68
33 105 36 178 14z m1106 -52 c-10 -21 -19 -44 -18 -53 0 -8 5 -4 10 9 l10 25
14 -28 c8 -16 15 -48 15 -72 0 -24 5 -44 10 -44 6 0 10 -11 10 -24 0 -23 22
-51 32 -41 3 3 3 -6 1 -20 -3 -15 -1 -25 6 -25 6 0 11 4 11 9 0 5 9 13 20 16
11 3 20 12 20 19 0 8 7 19 15 26 14 11 14 10 5 -16 -6 -16 -18 -36 -26 -45 -8
-9 -16 -26 -17 -38 -1 -11 -5 -21 -10 -21 -5 0 -7 7 -3 15 4 13 2 14 -14 5
-18 -10 -20 -7 -20 21 0 43 -7 33 -24 -30 -7 -28 -11 -49 -8 -46 5 5 31 -25
32 -37 0 -5 -6 -8 -13 -8 -25 0 -40 44 -41 121 0 43 -4 81 -8 85 -5 4 -8 -11
-8 -34 0 -23 -4 -42 -9 -42 -5 0 -16 -3 -25 -6 -9 -3 -16 -1 -16 6 0 6 5 8 10
5 6 -3 10 -1 10 4 0 6 -4 11 -10 11 -5 0 -14 10 -21 21 -8 16 -8 20 0 14 7 -4
16 6 22 24 12 33 24 39 33 19 3 -7 2 7 -1 32 -7 53 -13 65 -13 24 0 -26 -3
-29 -30 -28 -16 1 -34 2 -39 3 -26 3 12 105 57 154 38 40 54 35 31 -10z m431
-9 c-14 -25 -58 -59 -67 -50 -3 2 12 25 33 51 39 45 58 45 34 -1z m-38 14 c-7
-7 -12 -8 -12 -2 0 6 3 14 7 17 3 4 9 5 12 2 2 -3 -1 -11 -7 -17z m227 -80
c-12 -10 -26 -15 -32 -11 -6 4 -1 13 12 25 14 11 21 24 17 34 -3 9 -3 21 1 27
4 7 10 -3 15 -23 6 -29 4 -38 -13 -52z m-932 56 c20 -5 21 -9 11 -28 -7 -11
-13 -25 -14 -31 0 -5 -2 -13 -2 -17 -1 -4 -18 4 -39 17 -40 28 -56 26 -30 -3
10 -10 17 -23 17 -29 0 -6 6 -14 13 -16 6 -3 0 -6 -15 -6 -35 -1 -59 -11 -53
-22 3 -4 -11 -2 -32 5 -20 7 -38 17 -40 23 -6 17 77 92 112 102 38 12 45 12
72 5z m828 -24 c3 -5 1 -10 -4 -10 -6 0 -11 5 -11 10 0 6 2 10 4 10 3 0 8 -4
11 -10z m-1911 -28 c3 -5 -4 -15 -15 -22 -10 -8 -19 -20 -19 -28 0 -7 -4 -11
-10 -7 -10 6 -4 31 13 53 11 14 24 16 31 4z m336 2 c0 -12 -46 -43 -64 -44
-20 0 -20 0 -1 14 11 8 23 12 27 10 5 -3 8 2 8 10 0 9 7 16 15 16 8 0 15 -3
15 -6z m312 -15 c20 -11 20 -12 -10 -25 -18 -7 -32 -18 -32 -24 0 -5 -9 -10
-21 -10 -11 0 -17 -4 -14 -10 3 -5 0 -11 -7 -11 -7 -1 -1 -4 15 -8 l28 -6 -21
-40 c-11 -21 -20 -46 -20 -53 0 -11 -8 -13 -30 -8 -33 6 -42 -9 -10 -17 29 -8
24 -24 -7 -25 -36 0 -79 22 -87 45 -6 14 -5 16 5 6 7 -7 17 -13 22 -13 5 0 1
7 -7 16 -23 22 -20 53 7 64 12 5 16 9 10 9 -20 1 -15 16 14 52 53 62 116 84
165 58z m498 -4 c0 -14 -20 -66 -30 -75 -12 -12 -29 -50 -22 -50 4 0 8 -9 8
-20 0 -27 -5 -25 -16 6 -8 19 -6 31 5 47 17 25 20 47 5 47 -6 0 -20 -20 -32
-45 -12 -25 -26 -45 -31 -45 -15 0 -63 -57 -59 -69 2 -6 -3 -11 -11 -11 -8 0
-29 -17 -46 -37 -25 -31 -32 -35 -40 -24 -7 11 -4 20 11 33 12 10 24 18 28 18
10 0 140 156 140 168 0 5 15 19 33 31 17 11 28 21 22 21 -11 0 16 20 28 20 4
0 7 -7 7 -15z m-1090 -67 c1 -19 -41 -5 -56 18 -15 22 -15 27 -3 34 10 7 21 1
36 -18 12 -15 22 -30 23 -34z m329 26 c2 -2 -12 -3 -31 -2 -19 1 -41 -2 -49
-6 -8 -4 -3 2 9 13 22 19 45 18 71 -5z m1136 -3 c-3 -6 -14 -11 -23 -11 -15 1
-15 2 2 15 21 16 32 13 21 -4z m-1273 -13 c-6 -6 -15 -8 -19 -4 -4 4 -1 11 7
16 19 12 27 3 12 -12z m448 13 c0 -6 -4 -13 -10 -16 -5 -3 -10 1 -10 9 0 9 5
16 10 16 6 0 10 -4 10 -9z m1250 -5 c0 -8 3 -21 6 -29 3 -8 -1 -17 -8 -19 -9
-4 -13 4 -14 28 0 19 3 34 8 34 4 0 8 -6 8 -14z m-1711 -53 c-75 -42 -89 -37
-20 6 28 17 51 36 51 42 0 8 5 8 15 -1 13 -11 7 -18 -46 -47z m497 45 c4 -7 4
-10 -1 -6 -4 4 -16 -3 -26 -15 -10 -12 -18 -16 -19 -9 0 6 5 12 10 12 6 0 10
7 10 15 0 18 16 20 26 3z m168 -4 c4 -9 13 -14 21 -10 9 3 15 0 15 -9 0 -8 5
-15 10 -15 6 0 10 -5 10 -11 0 -8 -4 -9 -13 0 -16 13 -28 5 -20 -15 3 -8 0
-14 -6 -14 -6 0 -8 -7 -5 -15 7 -18 -7 -20 -24 -3 -9 9 -12 9 -12 -1 0 -9 -8
-11 -26 -7 -16 4 -23 3 -20 -3 4 -5 -3 -9 -14 -8 -24 2 -25 10 -5 31 8 8 15
19 15 25 0 12 49 71 60 71 4 0 11 -7 14 -16z m271 -4 c3 -5 2 -10 -4 -10 -5 0
-13 5 -16 10 -3 6 -2 10 4 10 5 0 13 -4 16 -10z m589 4 c13 -5 15 -15 11 -43
-6 -34 -5 -35 8 -13 17 29 29 18 15 -14 -7 -14 -17 -23 -25 -20 -7 3 -26 -6
-42 -19 -16 -14 -33 -25 -37 -25 -5 0 -2 6 6 13 8 7 20 19 27 28 11 13 8 15
-21 13 -29 -3 -33 0 -29 17 6 22 14 24 33 7 12 -11 12 -10 2 4 -11 14 -9 20 9
37 26 24 23 23 43 15z m-454 -13 c0 -5 3 -16 6 -24 4 -12 0 -14 -15 -10 -16 4
-19 9 -11 18 5 6 7 15 3 18 -3 4 -1 7 5 7 7 0 12 -4 12 -9z m227 -28 c-3 -10
-5 -4 -5 12 0 17 2 24 5 18 2 -7 2 -21 0 -30z m-863 -14 c-2 -4 1 -11 8 -16
18 -11 18 -53 1 -53 -8 0 -11 -5 -7 -12 5 -8 2 -9 -10 -5 -10 4 -23 7 -29 7
-6 0 -4 6 5 13 20 15 33 57 19 57 -6 0 -11 4 -11 8 0 5 7 9 15 9 8 0 12 -4 9
-8z m846 -19 c0 -5 -2 -10 -4 -10 -3 0 -8 5 -11 10 -3 6 -1 10 4 10 6 0 11 -4
11 -10z m-433 -51 c21 -25 5 -48 -38 -55 -29 -5 -41 -12 -45 -28 -4 -18 -11
-22 -33 -18 -33 5 -52 -16 -27 -30 27 -15 18 -28 -20 -28 -34 0 -36 1 -29 27
3 15 23 41 42 57 20 17 57 51 81 76 33 33 46 41 50 30 2 -8 11 -22 19 -31z
m317 -23 c-5 -14 -9 -15 -15 -5 -5 8 -3 17 4 21 15 9 19 4 11 -16z m-74 4 c0
-5 -4 -10 -9 -10 -6 0 -13 5 -16 10 -3 6 1 10 9 10 9 0 16 -4 16 -10z m-1300
-14 c0 -11 -19 -15 -25 -6 -3 5 1 10 9 10 9 0 16 -2 16 -4z m610 -6 c0 -5 -5
-10 -11 -10 -5 0 -7 5 -4 10 3 6 8 10 11 10 2 0 4 -4 4 -10z m585 -20 c3 -5
12 -7 20 -3 9 3 15 -1 15 -11 0 -17 -6 -19 -62 -16 -22 1 -38 -3 -38 -9 0 -6
-10 -11 -22 -11 -21 0 -21 0 -2 -15 18 -14 16 -15 -23 -12 -24 1 -43 5 -43 8
0 8 52 54 75 67 25 14 72 15 80 2z m-1189 -11 c3 -6 1 -16 -5 -22 -8 -8 -11
-7 -11 5 0 12 -6 15 -22 10 -14 -3 -19 -2 -14 6 9 15 43 16 52 1z m1479 1 c3
-5 -1 -10 -10 -10 -9 0 -13 5 -10 10 3 6 8 10 10 10 2 0 7 -4 10 -10z m-1295
-24 c0 -3 -4 -8 -10 -11 -5 -3 -10 -1 -10 4 0 6 5 11 10 11 6 0 10 -2 10 -4z
m1087 -14 c12 -9 25 -31 28 -49 6 -39 -18 -57 -83 -57 -36 -1 -40 1 -25 12 9
6 20 12 24 12 4 0 9 9 12 20 4 17 2 18 -14 9 -11 -5 -17 -14 -14 -20 10 -15
-8 -10 -32 10 -26 22 -31 43 -8 35 8 -4 12 -10 9 -15 -3 -5 -1 -9 4 -9 11 0
37 30 45 53 8 22 26 21 54 -1z m73 -2 c0 -4 -9 -6 -21 -3 -15 4 -17 8 -8 14
14 8 29 3 29 -11z m-540 -41 c0 -5 -4 -9 -10 -9 -5 0 -10 7 -10 16 0 8 5 12
10 9 6 -3 10 -10 10 -16z m-723 -1 c18 -7 33 -15 33 -19 0 -5 -16 -1 -36 7
-20 8 -43 13 -51 10 -8 -3 -11 -1 -8 4 8 13 21 13 62 -2z m873 2 c0 -5 -4 -10
-10 -10 -5 0 -10 5 -10 10 0 6 5 10 10 10 6 0 10 -4 10 -10z m-1090 -19 c71
-14 143 -16 160 -6 8 5 15 4 17 -2 2 -5 15 -8 28 -5 14 2 25 0 25 -6 0 -5 -20
-10 -45 -10 -25 -1 -54 -7 -65 -15 -17 -12 -31 -12 -93 0 -92 17 -167 42 -167
55 0 11 43 7 140 -11z m1048 -18 c-16 -2 -28 -8 -28 -13 0 -5 -7 -7 -16 -3
-23 9 3 23 41 21 l30 -1 -27 -4z m246 -19 c-14 -6 -6 -50 11 -64 17 -14 113
17 118 39 4 13 5 13 6 -2 0 -10 -9 -22 -21 -27 -13 -5 -19 -9 -15 -9 13 -1
-18 -29 -34 -31 -21 -3 -59 11 -59 21 0 5 -11 7 -25 3 -21 -5 -24 -3 -19 12 4
11 11 25 17 32 6 8 6 12 -2 12 -7 0 -9 5 -6 10 3 6 14 10 23 9 9 0 12 -3 6 -5z
m383 -38 c-7 -17 18 -40 33 -31 5 3 10 2 10 -4 0 -5 -5 -13 -10 -16 -6 -4 -8
-16 -5 -28 2 -12 2 -16 -1 -9 -3 6 -10 12 -15 12 -4 0 -6 -6 -4 -12 6 -18 -36
-47 -77 -53 l-33 -5 0 54 c0 45 4 57 25 74 13 11 30 18 36 15 7 -2 15 0 19 6
9 16 28 13 22 -3z m-699 -30 c23 -10 42 -22 42 -28 0 -5 5 -6 10 -3 6 3 10 1
10 -4 0 -14 -1 -14 -78 9 -60 18 -100 25 -155 29 -10 1 -15 6 -11 12 9 16 131
6 182 -15z m447 -36 c-6 -9 -9 -9 -16 1 -10 17 0 34 13 21 6 -6 7 -16 3 -22z
m-401 -59 c25 -10 28 -15 22 -41 -3 -17 -1 -30 4 -30 6 0 10 -5 10 -11 0 -5
-4 -7 -10 -4 -5 3 -7 0 -4 -8 9 -24 -26 -29 -52 -8 -25 20 -65 18 -61 -3 1 -6
-9 -10 -23 -9 -14 2 -34 3 -46 4 -14 1 -20 8 -20 23 1 14 -5 21 -19 21 -11 1
-23 -3 -26 -8 -7 -10 -99 73 -99 89 0 20 30 38 73 44 40 5 162 -23 251 -59z
m238 47 c-6 -6 -15 -8 -19 -4 -4 4 -1 11 7 16 19 12 27 3 12 -12z m63 2 c3 -5
-3 -10 -14 -10 -11 0 -23 5 -26 10 -3 6 3 10 14 10 11 0 23 -4 26 -10z m-869
-31 c79 -30 125 -71 115 -103 0 -3 -21 6 -45 19 -37 20 -47 21 -56 10 -8 -9
-8 -15 0 -20 5 -3 10 -2 10 3 0 6 9 8 20 5 19 -5 19 -6 3 -19 -15 -10 -22 -10
-38 0 -12 8 -39 16 -61 18 -58 7 -69 16 -48 39 16 18 15 18 -10 6 -14 -7 -26
-15 -26 -19 0 -5 -10 -8 -22 -8 -17 0 -19 3 -9 9 17 11 -1 23 -23 15 -13 -5
-14 -9 -5 -20 6 -8 7 -14 2 -14 -5 0 -15 11 -22 24 -12 21 -17 23 -43 14 -16
-6 -32 -8 -35 -4 -8 8 47 55 72 61 77 17 145 12 221 -16z m914 -9 c0 -5 -2
-10 -4 -10 -3 0 -8 5 -11 10 -3 6 -1 10 4 10 6 0 11 -4 11 -10z m-1805 -61 c0
-8 -10 -15 -22 -17 -25 -4 -30 7 -11 26 15 15 33 10 33 -9z m1730 -6 c8 4 17
2 20 -2 7 -13 -42 -20 -54 -8 -17 17 -13 31 4 17 8 -7 21 -10 30 -7z m-1799
-28 c3 -8 2 -20 -2 -27 -4 -7 -7 -50 -5 -95 2 -53 -2 -94 -11 -113 -19 -43
-31 -37 -23 13 13 77 15 207 3 207 -7 0 -6 6 2 15 16 19 29 19 36 0z m1249 4
c11 -17 2 -18 -19 -3 -17 12 -17 14 -4 14 9 0 20 -5 23 -11z m-1165 -9 c0 -5
-4 -10 -10 -10 -5 0 -10 5 -10 10 0 6 5 10 10 10 6 0 10 -4 10 -10z m1650 0
c0 -5 -4 -10 -10 -10 -5 0 -10 5 -10 10 0 6 5 10 10 10 6 0 10 -4 10 -10z
m-1015 -20 c3 -5 -3 -10 -14 -10 -12 0 -21 5 -21 10 0 6 6 10 14 10 8 0 18 -4
21 -10z m82 -12 c6 15 53 16 53 1 0 -6 -9 -8 -22 -4 -18 5 -20 4 -8 -4 8 -6
26 -11 40 -11 19 0 22 2 10 10 -23 15 -9 17 68 11 49 -4 78 -11 85 -22 7 -8
20 -18 30 -22 10 -4 17 -14 15 -24 -4 -20 -26 -20 -173 -3 -55 7 -106 17 -114
24 -11 8 -13 8 -7 -1 10 -18 -2 -16 -21 2 -8 9 -23 13 -33 10 -9 -3 -23 1 -30
10 -11 13 -7 15 28 15 23 0 44 5 48 11 4 8 9 7 16 -2 7 -11 11 -11 15 -1z
m-847 -118 c0 -5 -5 -10 -11 -10 -5 0 -7 5 -4 10 3 6 8 10 11 10 2 0 4 -4 4
-10z m1970 -41 c0 -9 8 -27 18 -40 10 -13 28 -45 40 -70 23 -48 56 -89 72 -89
6 0 10 -3 10 -7 0 -5 -13 -8 -30 -9 -20 -1 -31 5 -35 16 -3 10 -17 30 -30 46
-14 16 -25 37 -25 46 0 9 -4 20 -10 23 -5 3 -15 25 -21 48 -6 23 -16 45 -22
49 -7 4 -2 6 11 5 13 -1 22 -8 22 -18z m-624 4 c-3 -4 -12 -8 -19 -10 -35 -8
-87 -29 -87 -35 0 -5 -7 -8 -15 -8 -21 0 -19 12 5 38 16 17 32 22 72 22 28 0
48 -3 44 -7z m28 -19 c23 -9 20 -34 -4 -34 -13 0 -20 7 -20 20 0 22 1 23 24
14z m264 -19 c7 -15 8 -25 2 -25 -6 0 -10 5 -10 12 0 6 -3 9 -6 6 -3 -4 2 -18
11 -32 9 -14 14 -29 11 -34 -7 -13 -56 -22 -56 -11 0 5 -6 6 -13 3 -7 -2 -21
2 -31 9 -27 20 -12 54 32 76 49 25 47 25 60 -4z m-618 -36 c35 -20 75 -70 64
-81 -2 -3 2 -11 11 -18 20 -17 19 -36 -2 -45 -16 -6 -15 -8 5 -16 13 -5 20
-13 17 -19 -3 -5 -1 -10 4 -10 16 0 9 -43 -9 -57 -24 -20 -61 -16 -67 7 -3 11
-9 20 -14 20 -5 0 -9 8 -9 18 0 25 -44 77 -58 68 -7 -4 -12 -15 -12 -24 0 -15
2 -15 11 -2 9 13 10 13 6 0 -2 -8 -14 -15 -26 -14 -11 0 -21 0 -21 -1 0 -2 7
-18 15 -36 19 -43 39 -69 54 -69 6 0 11 -6 12 -12 0 -7 2 -23 3 -36 2 -13 -1
-25 -5 -28 -10 -6 -49 27 -49 42 0 6 -10 14 -22 18 -14 4 -19 9 -12 13 17 12
-3 70 -26 76 -12 3 -20 14 -20 26 0 13 -8 23 -23 27 -19 4 -23 10 -19 31 4 21
2 25 -11 20 -9 -3 -19 -1 -23 5 -5 7 -2 8 6 3 8 -5 11 -4 6 3 -4 6 -13 9 -22
5 -12 -4 -11 1 3 26 22 38 48 48 69 26 9 -9 19 -13 22 -10 3 3 0 11 -6 17 -7
7 -12 16 -12 20 0 12 17 10 32 -5 21 -21 48 -28 41 -11 -3 7 -9 14 -14 14 -5
0 -9 7 -9 15 0 23 65 19 110 -6z m-680 -96 c28 6 90 -24 90 -43 0 -5 6 -10 14
-10 19 0 31 -67 15 -86 -23 -28 -45 -33 -85 -21 -35 10 -114 56 -106 60 2 1 1
19 -3 39 -4 21 -11 35 -16 32 -15 -9 -10 3 8 17 14 12 16 12 8 0 -5 -10 -4
-12 3 -7 7 4 12 16 12 27 0 19 1 19 17 4 10 -11 26 -15 43 -12z m440 -18 c0
-8 -2 -15 -4 -15 -2 0 -6 7 -10 15 -3 8 -1 15 4 15 6 0 10 -7 10 -15z m986
-54 c-3 -5 1 -14 9 -21 8 -7 15 -17 15 -24 0 -6 -11 1 -24 14 -23 24 -25 40
-5 40 6 0 8 -4 5 -9z m-3 -49 c27 -18 67 -57 67 -65 0 -3 -20 -5 -44 -5 -60
-2 -94 27 -78 63 14 30 19 30 55 7z m-503 -2 c8 -5 11 -10 5 -10 -5 0 -1 -7 9
-15 15 -11 20 -29 22 -79 l3 -64 -32 -6 c-19 -4 -33 -2 -35 4 -2 6 -15 15 -29
21 -13 5 -21 13 -18 19 3 5 1 10 -5 10 -7 0 -8 6 -2 16 5 9 6 32 2 50 -7 29
-4 37 13 49 25 17 46 19 67 5z m-240 -19 c0 -6 -4 -13 -10 -16 -5 -3 -10 1
-10 9 0 9 5 16 10 16 6 0 10 -4 10 -9z m357 -23 c-3 -8 -6 -5 -6 6 -1 11 2 17
5 13 3 -3 4 -12 1 -19z m-920 -14 c-3 -3 -12 -4 -19 -1 -8 3 -5 6 6 6 11 1 17
-2 13 -5z m644 -13 c20 -16 21 -19 6 -17 -10 1 -22 9 -27 16 -5 8 -12 11 -17
7 -4 -5 -1 -12 7 -17 8 -6 10 -10 4 -10 -6 0 -14 -18 -18 -40 -8 -49 -26 -53
-26 -5 0 34 24 85 40 85 4 0 18 -9 31 -19z m-4 -52 c-15 -24 -27 -24 -27 -1 0
24 8 32 26 25 10 -4 11 -9 1 -24z m343 -10 c14 -11 20 -18 13 -15 -6 4 -15 1
-18 -5 -4 -5 -14 -8 -22 -5 -8 4 -23 -4 -34 -16 -18 -21 -18 -19 2 20 11 23
24 42 28 42 3 0 17 -10 31 -21z m150 -31 c0 -10 3 -9 9 1 7 11 11 10 20 -7 14
-26 14 -35 1 -27 -6 4 -10 -8 -10 -29 0 -35 -1 -35 -32 -29 -35 6 -62 23 -38
23 7 0 10 3 7 6 -4 4 -12 2 -20 -4 -8 -7 -18 -7 -27 -2 -12 7 -12 13 -1 33 20
38 91 64 91 35z m-335 -48 c-3 -5 -11 -10 -16 -10 -6 0 -7 5 -4 10 3 6 11 10
16 10 6 0 7 -4 4 -10z m-507 -24 c15 -8 38 -27 52 -42 14 -15 19 -24 12 -20
-7 4 -21 4 -30 0 -24 -10 -46 -10 -54 0 -10 15 -58 16 -58 1 0 -8 7 -11 20 -8
14 4 20 0 20 -11 0 -10 -9 -16 -25 -16 -14 0 -25 -4 -25 -8 0 -4 -8 -9 -17
-10 -10 -1 -29 -3 -43 -5 -14 -2 -31 1 -39 7 -9 7 -16 7 -18 1 -13 -39 -22
-40 -54 -9 -40 41 -33 65 29 95 79 39 182 50 230 25z m-434 -82 c7 -18 -13
-84 -25 -84 -4 0 -21 -13 -38 -29 -17 -16 -31 -25 -31 -21 0 5 14 21 30 37 29
27 42 62 18 47 -7 -4 -8 -3 -4 5 4 6 12 9 17 6 9 -6 12 3 12 38 0 22 13 22 21
1z m188 -97 c-16 -10 -14 -12 -30 33 l-12 35 28 -30 c21 -23 24 -32 14 -38z
m348 53 c0 -6 -12 -15 -26 -20 -41 -16 -51 -11 -19 9 35 23 45 25 45 11z m-80
-46 c0 -11 -5 -14 -16 -10 -9 3 -18 6 -20 6 -3 0 -2 5 1 10 10 16 35 12 35 -6z
m-753 -16 c-3 -8 -6 -5 -6 6 -1 11 2 17 5 13 3 -3 4 -12 1 -19z m188 12 c3 -5
2 -10 -4 -10 -5 0 -13 5 -16 10 -3 6 -2 10 4 10 5 0 13 -4 16 -10z m465 -2 c0
-4 -9 -8 -20 -8 -11 0 -20 4 -20 8 0 4 9 8 20 8 11 0 20 -4 20 -8z m494 -17
c3 -5 -1 -11 -9 -14 -9 -4 -12 -1 -8 9 6 16 10 17 17 5z m-624 -11 c12 -7 12
-12 2 -22 -9 -9 -12 -9 -12 4 0 9 -8 19 -17 21 -13 3 -14 5 -3 6 8 0 22 -4 30
-9z m105 -10 c3 -5 -1 -10 -10 -10 -8 0 -20 -10 -24 -22 -9 -22 -9 -22 -17 -3
-4 11 -15 25 -23 32 -13 10 -9 12 26 13 23 0 45 -4 48 -10z m75 0 c0 -5 -15
-9 -32 -9 l-33 1 30 8 c17 4 31 8 33 9 1 0 2 -3 2 -9z m598 -52 c-10 -7 -9
-11 5 -19 20 -12 23 -38 5 -40 -7 -1 -26 0 -42 1 -23 1 -28 -1 -22 -15 5 -13
2 -16 -10 -11 -8 3 -30 6 -48 6 -18 0 -43 8 -54 19 -26 22 -28 31 -6 31 8 0
12 5 9 10 -7 11 39 32 73 32 12 0 22 4 22 8 0 5 10 6 22 2 15 -4 19 -2 13 7
-4 7 5 5 19 -5 21 -13 24 -19 14 -26z m-1158 17 c-7 -8 -21 -15 -32 -15 -11 0
-28 -5 -39 -10 -10 -6 -19 -7 -19 -2 0 13 58 39 89 41 11 1 11 -2 1 -14z
m-106 -21 c3 -8 2 -12 -4 -9 -6 3 -10 10 -10 16 0 14 7 11 14 -7z m867 -18
c14 8 11 -1 -8 -22 -20 -22 -71 -41 -125 -48 -40 -5 -62 10 -31 21 10 4 20 9
23 13 7 8 81 38 105 42 11 2 22 0 23 -4 2 -5 8 -6 13 -2z m219 -56 c0 -5 -9
-10 -20 -10 -11 0 -20 5 -20 10 0 6 9 10 20 10 11 0 20 -4 20 -10z m-684 -37
c4 -16 13 -33 21 -40 8 -6 13 -22 11 -34 -2 -18 -12 -26 -41 -32 -32 -8 -40
-6 -62 14 -14 14 -25 35 -25 51 0 20 -4 26 -15 22 -9 -4 -15 0 -15 8 0 9 10
15 28 16 15 0 38 5 52 11 37 14 39 14 46 -16z m274 7 c-20 -13 -43 -13 -35 0
3 6 16 10 28 10 18 0 19 -2 7 -10z m550 -10 c0 -5 -4 -10 -10 -10 -5 0 -10 5
-10 10 0 6 5 10 10 10 6 0 10 -4 10 -10z m-311 -32 c5 -13 7 -24 6 -26 -1 -2
-26 0 -55 4 l-53 7 34 18 c45 24 58 23 68 -3z m-162 -152 c-9 -22 -43 -24 -68
-4 -24 19 -24 19 -1 13 23 -7 62 2 61 13 -3 18 4 25 8 9 3 -10 2 -24 0 -31z
m53 31 c0 -15 27 -16 50 -2 12 7 12 5 -1 -15 -10 -15 -30 -27 -50 -31 -30 -4
-34 -2 -35 18 -1 13 2 23 8 23 5 0 6 5 3 10 -3 6 1 10 9 10 9 0 16 -6 16 -13z
m-50 -78 c0 -4 -7 -6 -15 -3 -8 4 -15 10 -15 15 0 4 7 6 15 3 8 -4 15 -10 15
-15z m-176 -58 c28 -30 29 -33 9 -27 -24 6 -40 10 -86 20 -24 6 -26 9 -17 27
14 24 53 42 59 25 2 -6 18 -26 35 -45z m-169 -111 c-3 -5 -12 -10 -18 -10 -7
0 -6 4 3 10 19 12 23 12 15 0z m-45 -10 c12 -8 9 -10 -12 -10 -15 0 -30 5 -33
10 -8 13 25 13 45 0z m210 -50 c13 -9 13 -10 0 -9 -8 0 -24 4 -35 9 l-20 9 20
0 c11 0 27 -4 35 -9z m73 -57 c-7 -2 -19 -2 -25 0 -7 3 -2 5 12 5 14 0 19 -2
13 -5z"/>
<path d="M3520 4740 c0 -5 7 -10 16 -10 8 0 12 5 9 10 -3 6 -10 10 -16 10 -5
0 -9 -4 -9 -10z"/>
<path d="M4095 4959 c-4 -6 -5 -12 -2 -15 2 -3 7 2 10 11 7 17 1 20 -8 4z"/>
<path d="M2305 3910 c3 -5 8 -10 11 -10 2 0 4 5 4 10 0 6 -5 10 -11 10 -5 0
-7 -4 -4 -10z"/>
<path d="M2421 3891 c-9 -6 -6 -8 13 -8 14 0 23 3 20 8 -7 11 -15 11 -33 0z"/>
<path d="M3211 3640 c1 -8 5 -26 9 -40 l8 -25 1 25 c0 14 -4 32 -9 40 -9 13
-10 13 -9 0z"/>
<path d="M1585 3400 c3 -5 8 -10 11 -10 2 0 4 5 4 10 0 6 -5 10 -11 10 -5 0
-7 -4 -4 -10z"/>
<path d="M2800 3210 c-9 -6 -10 -10 -3 -10 6 0 15 5 18 10 8 12 4 12 -15 0z"/>
<path d="M2496 3392 c-3 -6 -1 -14 5 -17 15 -10 25 3 12 16 -7 7 -13 7 -17 1z"/>
<path d="M3180 3230 c-9 -6 -10 -10 -3 -10 6 0 15 5 18 10 8 12 4 12 -15 0z"/>
<path d="M1705 2750 c-3 -6 1 -7 9 -4 18 7 21 14 7 14 -6 0 -13 -4 -16 -10z"/>
<path d="M1828 2633 c6 -2 18 -2 25 0 6 3 1 5 -13 5 -14 0 -19 -2 -12 -5z"/>
<path d="M1822 2394 c10 -10 20 -16 22 -13 3 3 -5 11 -17 18 -21 13 -21 12 -5
-5z"/>
<path d="M1690 2345 c0 -14 0 -28 -1 -32 0 -4 4 -9 9 -11 14 -4 24 29 12 43
-5 6 -7 15 -3 18 3 4 1 7 -5 7 -7 0 -12 -11 -12 -25z"/>
<path d="M1735 2353 c-3 -9 -1 -21 5 -27 7 -7 10 -6 10 3 0 8 6 11 15 7 20 -7
19 -4 -4 16 -18 15 -20 15 -26 1z"/>
<path d="M1475 1950 c3 -5 10 -10 16 -10 5 0 9 5 9 10 0 6 -7 10 -16 10 -8 0
-12 -4 -9 -10z"/>
<path d="M1968 1663 c6 -2 18 -2 25 0 6 3 1 5 -13 5 -14 0 -19 -2 -12 -5z"/>
<path d="M1191 1534 c0 -11 3 -14 6 -6 3 7 2 16 -1 19 -3 4 -6 -2 -5 -13z"/>
<path d="M1207 1516 c-4 -10 0 -12 14 -9 10 3 16 9 13 14 -8 13 -21 11 -27 -5z"/>
<path d="M3420 5196 c0 -2 7 -6 15 -10 8 -3 15 -1 15 4 0 6 -7 10 -15 10 -8 0
-15 -2 -15 -4z"/>
<path d="M3498 5178 c9 -9 15 -9 24 0 9 9 7 12 -12 12 -19 0 -21 -3 -12 -12z"/>
<path d="M3540 5176 c0 -9 40 -13 46 -5 3 5 -6 9 -20 9 -14 0 -26 -2 -26 -4z"/>
<path d="M3050 5148 c0 -15 18 -17 30 -3 9 11 8 14 -9 12 -12 -1 -21 -5 -21
-9z"/>
<path d="M2847 5064 c-4 -4 -4 -10 -2 -14 6 -10 45 0 45 11 0 10 -33 12 -43 3z"/>
<path d="M4800 5023 c29 -27 64 -55 77 -64 41 -27 73 -92 52 -105 -10 -6 -3
-24 10 -24 4 0 18 15 31 33 13 17 17 27 9 20 -11 -9 -19 -1 -42 47 -21 43 -37
62 -60 71 -18 7 -34 16 -37 20 -6 8 -78 49 -86 49 -4 0 17 -21 46 -47z"/>
<path d="M2915 5030 c-3 -5 1 -10 10 -10 9 0 13 5 10 10 -3 6 -8 10 -10 10 -2
0 -7 -4 -10 -10z"/>
<path d="M4756 4935 c-11 -8 -15 -15 -9 -15 6 0 16 7 23 15 16 19 11 19 -14 0z"/>
<path d="M4736 4897 c3 -10 9 -15 12 -12 3 3 0 11 -7 18 -10 9 -11 8 -5 -6z"/>
<path d="M4810 4859 c0 -5 5 -7 10 -4 6 3 10 8 10 11 0 2 -4 4 -10 4 -5 0 -10
-5 -10 -11z"/>
<path d="M4864 4849 c-19 -22 -19 -22 4 -10 12 6 22 16 22 21 0 15 -5 12 -26
-11z"/>
<path d="M2565 4771 c-3 -5 -2 -12 3 -15 5 -3 9 1 9 9 0 17 -3 19 -12 6z"/>
<path d="M2634 4769 c-3 -5 6 -9 20 -9 31 0 34 6 6 13 -11 3 -23 1 -26 -4z"/>
<path d="M2658 4733 c7 -3 16 -2 19 1 4 3 -2 6 -13 5 -11 0 -14 -3 -6 -6z"/>
<path d="M5272 4713 c-6 -3 -10 -9 -6 -14 3 -5 -4 -9 -15 -9 -23 0 -45 -34
-37 -56 6 -16 53 -3 49 15 -2 6 4 8 12 5 8 -4 15 -2 15 4 0 6 -6 12 -12 15
-10 3 -10 8 1 21 15 18 13 26 -7 19z"/>
<path d="M5365 4670 c-10 -11 -14 -20 -9 -20 5 0 15 9 22 20 7 11 11 20 9 20
-2 0 -12 -9 -22 -20z"/>
<path d="M5145 4590 c-3 -5 -1 -10 4 -10 6 0 11 5 11 10 0 6 -2 10 -4 10 -3 0
-8 -4 -11 -10z"/>
<path d="M5369 4595 c-1 -6 -1 -14 0 -18 1 -4 -8 -3 -19 3 -21 11 -60 5 -60
-9 0 -5 6 -14 14 -20 15 -12 49 -4 40 10 -3 5 9 1 25 -9 41 -23 57 -5 25 28
-13 13 -25 20 -25 15z"/>
<path d="M5542 4573 c-14 -15 -20 -29 -15 -34 17 -17 39 1 41 31 3 35 4 35
-26 3z"/>
<path d="M2069 4578 c-8 -25 -7 -58 1 -58 6 0 8 5 5 10 -3 6 -2 10 4 10 5 0 9
9 8 20 -1 16 -14 29 -18 18z"/>
<path d="M5225 4556 c-11 -12 -18 -29 -17 -38 2 -11 -3 -18 -12 -18 -9 0 -13
6 -10 14 3 8 1 17 -5 20 -6 4 -7 14 -4 24 4 13 1 12 -16 -5 -11 -12 -27 -20
-35 -17 -8 3 -17 1 -21 -5 -3 -6 -12 -11 -18 -11 -7 0 -6 4 3 10 8 5 12 12 8
15 -4 4 -14 -5 -23 -19 -10 -14 -24 -26 -31 -26 -8 0 -14 -7 -14 -16 0 -8 -7
-22 -15 -30 -8 -9 -15 -13 -15 -9 0 3 -12 -3 -27 -12 -28 -18 -46 -36 -90 -87
-13 -14 -29 -26 -37 -26 -19 0 -116 -77 -116 -93 0 -14 -41 -53 -52 -49 -5 1
-8 -3 -8 -9 0 -5 -4 -8 -10 -4 -5 3 -7 12 -4 20 3 7 1 23 -6 34 -9 17 -15 19
-30 11 -11 -6 -17 -16 -15 -23 12 -31 11 -78 -1 -88 -9 -7 -11 -21 -8 -36 5
-20 3 -24 -12 -21 -13 2 -20 -4 -22 -20 -2 -12 -8 -20 -13 -17 -5 4 -13 -5
-19 -19 -5 -15 -13 -25 -17 -24 -5 1 -19 -4 -31 -11 -28 -15 -40 -8 -23 13 15
18 4 73 -12 57 -6 -6 -18 -11 -27 -11 -29 0 -47 -32 -46 -80 2 -32 6 -45 16
-45 21 0 24 -32 6 -59 -10 -17 -12 -26 -4 -34 7 -7 5 -10 -8 -8 -22 3 -37 59
-20 77 6 7 -1 4 -16 -7 -22 -16 -27 -27 -28 -61 0 -25 -5 -43 -11 -43 -6 0 -9
9 -6 20 8 32 -19 24 -60 -16 -21 -20 -31 -34 -23 -30 8 4 6 -1 -6 -11 -20 -17
-44 -64 -44 -84 0 -5 14 -3 30 6 17 9 30 13 30 11 0 -13 -58 -34 -81 -29 -20
4 -31 -2 -47 -21 -11 -14 -25 -26 -32 -26 -6 0 -9 -8 -6 -18 4 -12 -3 -27 -19
-42 -14 -13 -25 -28 -25 -32 0 -11 -48 -82 -83 -122 -14 -16 -23 -35 -20 -42
3 -8 -2 -17 -11 -20 -22 -8 -20 -25 2 -17 12 4 11 1 -5 -14 -13 -11 -23 -27
-23 -34 0 -11 -2 -11 -10 1 -9 13 -14 7 -11 -12 0 -4 -6 -5 -14 -2 -9 4 -15 0
-15 -10 0 -9 -4 -16 -10 -16 -5 0 -10 -8 -10 -18 0 -11 -9 -27 -21 -38 -11
-10 -18 -26 -16 -36 3 -9 -1 -22 -9 -29 -8 -6 -14 -20 -14 -30 0 -11 -4 -19
-9 -19 -11 0 -51 -66 -51 -84 0 -7 -14 -25 -31 -42 -17 -16 -38 -45 -47 -64
-12 -25 -25 -36 -43 -38 -21 -2 -29 -11 -39 -45 -20 -67 -31 -86 -54 -89 -12
-2 -22 -12 -24 -24 -2 -12 -14 -26 -28 -33 -14 -6 -30 -23 -37 -39 -7 -16 -20
-27 -32 -27 -28 0 -34 -74 -8 -100 16 -17 16 -17 -3 -11 -13 4 -23 -1 -33 -16
-10 -16 -10 -23 -2 -26 7 -2 8 -9 1 -21 -5 -10 -6 -22 -2 -26 4 -4 -2 -3 -13
3 -16 9 -23 5 -42 -23 -13 -19 -23 -41 -23 -50 0 -30 -28 -48 -64 -41 -27 5
-35 3 -40 -11 -4 -11 -1 -22 8 -29 9 -6 16 -17 16 -25 0 -8 5 -5 14 7 12 15
17 17 27 7 11 -11 11 -13 0 -13 -7 0 -10 -7 -6 -19 8 -26 -4 -51 -25 -51 -10
0 -23 -7 -30 -15 -15 -18 -30 -11 -30 15 0 16 -3 17 -25 7 -14 -7 -25 -16 -25
-20 0 -5 5 -5 12 -1 6 4 8 3 5 -4 -4 -5 -15 -8 -25 -5 -22 5 -35 -10 -51 -59
-7 -20 -19 -42 -27 -48 -7 -7 -14 -22 -14 -33 0 -20 0 -20 19 1 10 12 22 22
27 22 4 0 3 -5 -4 -12 -7 -7 -12 -20 -12 -30 0 -10 -12 -24 -27 -31 -16 -6
-31 -16 -35 -22 -5 -6 -12 -5 -18 5 -10 13 -11 13 -9 0 5 -44 -15 -81 -68
-122 -30 -24 -58 -42 -62 -41 -14 4 -66 -48 -53 -53 6 -3 12 -13 12 -21 0 -13
-3 -13 -15 -3 -10 9 -15 9 -15 1 0 -8 -17 -9 -54 -5 -48 6 -55 4 -65 -15 -13
-24 -8 -28 44 -34 26 -3 28 -4 10 -12 -34 -14 -55 -37 -55 -60 0 -14 -8 -25
-20 -28 -15 -4 -20 0 -20 14 0 22 -22 34 -45 25 -11 -4 -13 -11 -5 -30 8 -21
6 -26 -13 -32 -12 -3 -34 -21 -48 -38 l-27 -31 24 -28 c29 -35 30 -47 4 -47
-11 0 -20 4 -20 9 0 11 -140 11 -162 -1 -20 -10 -25 -72 -7 -84 6 -3 24 3 40
15 36 27 39 26 39 -4 0 -18 4 -23 15 -19 8 4 15 1 15 -5 0 -6 -9 -11 -20 -11
-11 0 -20 -4 -20 -10 0 -5 -9 -14 -20 -20 -24 -13 -27 2 -5 24 8 8 15 23 15
33 0 14 -3 13 -17 -7 -10 -14 -18 -29 -18 -34 0 -12 -53 -17 -60 -5 -10 16
-38 10 -31 -6 4 -11 -2 -15 -23 -15 -29 0 -76 -43 -66 -60 3 -5 -6 -12 -20
-16 -21 -5 -23 -9 -14 -21 10 -11 10 -13 -1 -11 -9 2 -15 -6 -16 -19 -1 -12
-5 -30 -9 -40 -6 -17 -8 -17 -15 4 -7 16 -17 21 -44 20 -19 0 -33 -4 -30 -8 8
-13 -25 -31 -46 -24 -14 4 -22 1 -26 -10 -5 -12 -14 -15 -34 -11 -24 4 -29 1
-33 -19 -3 -20 0 -25 17 -25 16 0 18 -2 7 -9 -7 -5 -10 -14 -7 -20 4 -7 -1
-11 -13 -11 -11 0 -26 -7 -35 -15 -8 -9 -18 -16 -21 -15 -21 1 -25 -1 -20 -10
4 -6 -6 -10 -23 -10 -44 0 -85 -25 -89 -54 -3 -21 2 -26 34 -35 21 -6 46 -11
55 -11 17 0 31 -14 22 -22 -2 -3 -24 -2 -47 3 -48 8 -55 6 -37 -16 7 -8 10
-21 7 -28 -6 -16 26 -47 47 -47 8 0 22 7 31 16 15 15 21 14 83 -17 54 -28 67
-38 66 -56 -1 -18 4 -23 21 -23 13 0 25 -6 28 -12 2 -7 7 2 11 19 4 18 11 33
16 33 5 0 17 3 27 6 14 5 15 4 7 -5 -18 -20 -5 -52 20 -50 49 3 87 -2 81 -11
-3 -6 -15 -10 -25 -10 -23 0 -36 -36 -20 -55 13 -16 40 -19 78 -9 19 5 22 12
18 30 -5 20 -3 24 18 24 17 0 26 -7 30 -24 6 -25 38 -44 44 -27 2 6 17 11 33
11 16 0 30 6 31 13 5 41 17 67 33 67 21 0 62 -40 48 -46 -7 -3 -13 -14 -13
-24 0 -11 -11 -22 -30 -29 -33 -11 -39 -25 -15 -35 8 -3 15 -11 15 -19 0 -19
60 -10 90 14 20 15 22 21 11 28 -20 13 4 24 35 17 16 -4 24 -13 22 -23 -4 -25
31 -28 52 -5 13 14 26 18 51 14 l34 -6 -38 -9 c-27 -7 -37 -14 -35 -26 3 -12
13 -15 38 -14 19 2 53 3 75 3 34 1 43 5 57 30 10 17 15 37 12 45 -11 27 26 17
56 -15 39 -42 69 -51 99 -31 23 15 25 15 19 -1 -10 -26 3 -29 36 -9 37 22 126
38 126 22 0 -6 14 -11 31 -11 25 0 29 3 24 19 -5 15 0 21 24 26 17 4 35 4 41
0 5 -3 25 -3 45 1 25 4 35 11 35 25 0 11 7 19 16 19 8 0 12 4 9 10 -3 5 1 10
9 10 8 0 19 6 23 14 4 7 22 21 40 30 35 18 47 20 39 8 -7 -12 52 -45 69 -38 9
3 12 12 8 22 -4 12 -3 15 5 10 7 -4 12 -3 12 2 0 15 48 33 56 21 4 -7 20 -8
43 -3 20 4 54 8 75 8 24 1 41 7 44 15 3 10 0 12 -13 7 -11 -4 -22 -1 -27 6
-12 20 -9 28 8 21 10 -4 22 1 30 11 6 10 20 16 31 14 13 -2 17 3 16 20 -2 19
2 22 32 22 27 0 35 4 35 18 0 29 12 34 24 10 18 -35 42 -34 60 3 20 41 20 42
-4 34 -27 -9 -26 17 2 55 26 36 41 39 32 6 -6 -24 10 -44 21 -26 9 15 25 12
25 -4 0 -10 7 -12 23 -8 27 7 49 34 37 46 -11 11 18 56 36 56 8 0 14 10 14 24
0 30 16 42 35 26 7 -6 29 -12 47 -12 18 -1 36 -5 39 -11 10 -15 42 0 33 15 -6
9 -3 9 9 -1 14 -11 21 -10 47 13 17 14 30 27 29 28 -5 8 14 48 22 48 25 0 56
56 36 63 -9 3 -8 8 2 20 7 10 10 17 6 17 -4 0 -2 7 6 16 9 11 9 18 2 22 -19
12 12 72 37 72 20 0 28 -24 11 -34 -5 -3 -11 -14 -14 -25 -4 -17 -2 -18 20 -8
18 8 23 16 19 33 -5 18 -1 23 16 26 18 2 24 11 28 38 4 28 10 36 30 38 29 5
52 21 45 33 -3 4 12 25 33 46 22 21 42 49 46 61 4 12 12 22 17 22 13 0 50 63
45 77 -7 16 30 47 39 33 12 -20 43 17 37 46 -3 17 0 24 9 22 8 -2 15 7 17 22
5 30 29 59 58 70 14 6 25 22 31 47 6 27 17 42 38 53 24 11 26 15 12 18 -22 5
-12 22 14 22 14 0 19 7 19 29 0 32 -27 47 -45 24 -7 -9 -15 -10 -25 -3 -23 15
-1 41 46 55 34 10 98 55 78 55 -3 0 8 14 25 32 29 31 31 32 50 14 19 -17 20
-17 31 4 16 29 5 57 -15 40 -11 -9 -19 -9 -35 3 -11 7 -17 17 -13 20 3 4 -2
15 -11 26 -16 17 -16 23 -3 67 8 28 21 50 30 52 13 3 13 -2 -3 -33 -28 -55 -7
-85 41 -61 17 8 25 21 27 46 2 19 8 40 14 47 5 6 7 27 4 46 -4 24 -1 39 9 47
11 9 15 9 15 1 0 -17 27 -13 34 5 9 23 8 24 -19 24 -22 0 -24 2 -15 26 6 14
20 35 33 46 12 11 17 17 10 14 -19 -10 -26 14 -9 33 9 10 16 27 16 39 0 11 5
24 10 27 6 3 10 13 10 21 0 8 -3 13 -8 10 -4 -2 -18 2 -32 10 -24 15 -24 15
13 9 56 -9 92 2 106 31 6 15 7 23 1 19 -5 -3 -10 -1 -10 5 0 7 -7 10 -15 7 -8
-4 -17 -2 -20 3 -3 4 -13 7 -23 5 -9 -2 -19 -4 -22 -4 -3 -1 2 -6 10 -11 12
-8 9 -10 -12 -10 -32 0 -42 22 -29 67 5 18 7 41 4 53 -7 27 20 27 47 -2 11
-12 21 -18 21 -12 1 5 2 14 4 19 1 6 3 16 3 23 1 7 7 10 13 7 17 -11 77 59 85
99 l6 37 -37 -15 c-50 -21 -58 -11 -18 22 25 21 30 31 23 44 -14 24 2 61 42
92 l33 26 -24 19 -24 18 24 17 c13 9 22 20 20 24 -2 4 7 13 20 19 13 7 20 13
16 13 -4 0 -3 8 2 18 7 14 6 25 -6 42 -13 18 -13 24 -2 30 7 5 16 7 20 4 4 -2
10 0 14 6 3 5 16 10 27 10 12 0 19 3 15 6 -3 4 1 13 9 21 23 23 11 38 -28 38
-46 0 -53 7 -28 30 11 10 20 26 20 35 0 10 7 21 16 24 10 4 14 16 12 38 -2 24
-9 34 -27 38 -21 5 -22 7 -8 19 12 9 14 18 8 30 -12 22 -15 72 -6 94 4 10 5
21 1 24 -3 4 1 17 9 29 14 22 6 42 -14 30 -14 -9 0 42 15 55 8 6 14 17 14 25
0 15 -28 11 -70 -10 l-29 -14 16 24 c11 17 13 32 7 51 -4 16 -8 33 -9 40 0 7
-5 17 -11 23 -6 6 -8 24 -6 40 3 25 7 28 18 19 8 -6 14 -17 14 -24 0 -16 25
-26 45 -19 8 4 15 14 15 24 0 10 -7 23 -15 30 -8 7 -15 19 -15 27 0 19 -27 28
-43 14 -11 -8 -13 -6 -11 12 1 12 3 28 3 35 1 7 5 11 9 8 4 -2 14 -1 20 3 10
6 10 15 2 36 -6 16 -9 34 -6 42 3 7 -1 13 -8 13 -8 0 -17 16 -20 36 -5 26 -11
34 -22 30 -11 -4 -13 0 -8 19 5 21 3 23 -17 18 -15 -4 -26 0 -36 13 -11 15
-17 17 -33 6 -29 -18 -35 -15 -15 8 17 19 17 20 -1 21 -14 0 -15 2 -4 6 17 7
30 23 30 38 -1 6 -7 1 -15 -9 -12 -16 -18 -17 -27 -8 -9 9 -9 12 0 12 7 0 12
5 12 11 0 6 -16 -1 -35 -15 l-35 -27 10 26 c6 16 6 25 0 25 -6 0 -10 8 -10 18
0 9 -8 22 -17 28 -14 8 -22 6 -38 -10z m55 -126 c0 -11 -42 -31 -49 -24 -5 5
30 33 42 34 4 0 7 -5 7 -10z m115 -59 c10 -17 -12 -21 -25 -6 -10 12 -10 15 3
15 9 0 18 -4 22 -9z m-130 -13 c-31 -19 -49 -20 -34 -2 6 8 21 14 33 14 21 -1
21 -1 1 -12z m185 -7 c0 -11 -39 -25 -47 -18 -3 3 -2 10 2 16 8 13 45 15 45 2z
m-450 -31 c0 -5 -2 -10 -4 -10 -3 0 -8 5 -11 10 -3 6 -1 10 4 10 6 0 11 -4 11
-10z m165 0 c-7 -11 -55 -9 -55 2 0 4 14 8 31 8 17 0 28 -4 24 -10z m155 0
c12 -8 9 -10 -13 -10 -16 0 -26 4 -22 10 8 12 16 12 35 0z m-105 -10 c-3 -5
-14 -10 -23 -10 -15 0 -15 2 -2 10 20 13 33 13 25 0z m-215 -60 c0 -5 -5 -10
-11 -10 -5 0 -7 5 -4 10 3 6 8 10 11 10 2 0 4 -4 4 -10z m-145 -21 c-10 -15
-25 -10 -19 6 4 8 10 12 15 9 5 -3 7 -10 4 -15z m105 18 c0 -2 -9 -14 -20 -27
-11 -13 -20 -19 -20 -15 0 5 7 17 17 27 15 17 23 22 23 15z m510 -18 c0 -5 -4
-8 -9 -4 -5 3 -17 -2 -25 -11 -17 -17 -19 -15 -10 10 7 18 44 22 44 5z m-380
-14 c0 -8 -7 -15 -15 -15 -8 0 -20 -9 -27 -20 -13 -21 -38 -27 -38 -11 0 6
-12 6 -31 -1 -23 -8 -33 -7 -42 2 -10 10 -7 12 11 7 16 -4 22 -2 19 7 -3 8 9
12 41 12 32 0 48 5 56 17 13 21 26 22 26 2z m205 -55 c3 -5 -1 -10 -10 -10 -9
0 -13 5 -10 10 3 6 8 10 10 10 2 0 7 -4 10 -10z m-48 -6 c-3 -3 -12 -4 -19 -1
-8 3 -5 6 6 6 11 1 17 -2 13 -5z m-230 -24 c14 -11 21 -20 15 -20 -6 0 -18 7
-26 16 -9 8 -21 12 -27 8 -8 -4 -9 -3 -5 4 10 16 14 15 43 -8z m243 -26 c0 -8
-19 -13 -24 -6 -3 5 1 9 9 9 8 0 15 -2 15 -3z m-86 -13 c3 -5 -1 -11 -9 -14
-9 -4 -12 -1 -8 9 6 16 10 17 17 5z m-557 -47 c-3 -3 -12 -4 -19 -1 -8 3 -5 6
6 6 11 1 17 -2 13 -5z m223 -19 c-6 -8 -9 -19 -5 -24 3 -7 0 -8 -9 -5 -20 8
-20 9 0 28 19 20 31 21 14 1z m-120 -25 c0 -5 -5 -10 -11 -10 -5 0 -7 5 -4 10
3 6 8 10 11 10 2 0 4 -4 4 -10z m370 0 c0 -5 -2 -10 -4 -10 -3 0 -8 5 -11 10
-3 6 -1 10 4 10 6 0 11 -4 11 -10z m-74 -49 c-6 -9 -46 -22 -46 -15 0 3 10 9
23 14 29 11 29 11 23 1z m244 -1 c0 -5 -2 -10 -4 -10 -3 0 -8 5 -11 10 -3 6
-1 10 4 10 6 0 11 -4 11 -10z m-323 -32 c-3 -8 -6 -5 -6 6 -1 11 2 17 5 13 3
-3 4 -12 1 -19z m-71 -38 c-10 -3 -17 -10 -16 -15 1 -5 -4 -11 -11 -14 -7 -2
-9 1 -4 10 17 30 28 39 38 32 7 -4 4 -9 -7 -13z m537 -24 c-10 -13 -25 -24
-34 -23 -22 1 -14 20 14 33 35 18 39 16 20 -10z m-410 -16 c3 -11 2 -20 -3
-20 -12 0 -31 26 -23 33 11 12 21 7 26 -13z m75 -18 c-16 -20 -24 -24 -26 -15
-2 8 5 21 15 28 30 24 36 17 11 -13z m152 -2 c0 -5 -7 -10 -16 -10 -8 0 -12 5
-9 10 3 6 10 10 16 10 5 0 9 -4 9 -10z m-97 -7 c-7 -2 -21 -2 -30 0 -10 3 -4
5 12 5 17 0 24 -2 18 -5z m177 -7 c0 -2 -7 -7 -16 -10 -8 -3 -12 -2 -9 4 6 10
25 14 25 6z m42 -27 c-4 -24 -2 -30 8 -24 9 5 11 4 6 -4 -11 -17 -26 -3 -26
23 0 19 7 36 15 36 1 0 -1 -14 -3 -31z m-427 12 c-15 -13 -62 -26 -50 -13 6 5
19 12 30 15 11 3 22 5 25 6 2 0 0 -3 -5 -8z m-640 -21 c3 -6 -1 -7 -9 -4 -18
7 -21 14 -7 14 6 0 13 -4 16 -10z m5 -24 c0 -3 -4 -8 -10 -11 -5 -3 -10 -1
-10 4 0 6 5 11 10 11 6 0 10 -2 10 -4z m852 -18 c-7 -7 -12 -8 -12 -2 0 14 12
26 19 19 2 -3 -1 -11 -7 -17z m198 -18 c0 -5 -5 -10 -11 -10 -5 0 -7 5 -4 10
3 6 8 10 11 10 2 0 4 -4 4 -10z m-1010 -14 c0 -3 -4 -8 -10 -11 -5 -3 -10 -1
-10 4 0 6 5 11 10 11 6 0 10 -2 10 -4z m795 -16 c3 -5 1 -10 -4 -10 -6 0 -11
5 -11 10 0 6 2 10 4 10 3 0 8 -4 11 -10z m175 6 c0 -2 -8 -10 -17 -17 -16 -13
-17 -12 -4 4 13 16 21 21 21 13z m-850 -46 c0 -5 -5 -10 -11 -10 -5 0 -7 5 -4
10 3 6 8 10 11 10 2 0 4 -4 4 -10z m-110 -39 c-13 -25 -67 -64 -79 -57 -11 7
-3 44 12 53 6 4 8 -2 4 -16 -4 -18 -3 -20 9 -10 8 6 12 14 9 17 -6 6 33 31 48
32 4 0 3 -9 -3 -19z m600 5 c0 -2 -7 -6 -15 -10 -8 -3 -15 -1 -15 4 0 6 7 10
15 10 8 0 15 -2 15 -4z m248 -18 c-2 -6 -10 -14 -16 -16 -7 -2 -10 2 -6 12 7
18 28 22 22 4z m-497 -25 c-12 -20 -14 -14 -5 12 4 9 9 14 11 11 3 -2 0 -13
-6 -23z m-76 7 c3 -5 2 -10 -4 -10 -5 0 -13 5 -16 10 -3 6 -2 10 4 10 5 0 13
-4 16 -10z m280 0 c-3 -5 -10 -10 -16 -10 -5 0 -9 5 -9 10 0 6 7 10 16 10 8 0
12 -4 9 -10z m514 -21 c-10 -19 -30 -25 -42 -12 -11 10 23 42 39 36 10 -4 11
-10 3 -24z m-399 1 c0 -5 -4 -10 -9 -10 -6 0 -13 5 -16 10 -3 6 1 10 9 10 9 0
16 -4 16 -10z m-140 -10 c0 -5 -5 -10 -11 -10 -5 0 -7 -6 -3 -12 5 -10 4 -10
-6 -1 -7 6 -9 16 -6 22 9 14 26 14 26 1z m-65 -40 c3 -5 -1 -10 -10 -10 -9 0
-13 5 -10 10 3 6 8 10 10 10 2 0 7 -4 10 -10z m120 0 c-3 -5 -13 -10 -21 -10
-8 0 -12 5 -9 10 3 6 13 10 21 10 8 0 12 -4 9 -10z m325 -14 c0 -3 -4 -8 -10
-11 -5 -3 -10 -1 -10 4 0 6 5 11 10 11 6 0 10 -2 10 -4z m-914 -33 c-10 -10
-19 5 -10 18 6 11 8 11 12 0 2 -7 1 -15 -2 -18z m874 13 c0 -3 -4 -8 -10 -11
-5 -3 -10 -1 -10 4 0 6 5 11 10 11 6 0 10 -2 10 -4z m-950 -10 c0 -2 -9 -6
-20 -9 -11 -3 -18 -1 -14 4 5 9 34 13 34 5z m1100 -6 c-8 -5 -19 -10 -25 -10
-5 0 -3 5 5 10 8 5 20 10 25 10 6 0 3 -5 -5 -10z m-219 -19 c-10 -6 -10 -10
-1 -16 8 -5 7 -12 -5 -25 -9 -10 -14 -23 -11 -29 4 -5 -2 -14 -11 -20 -10 -6
-13 -11 -6 -11 6 0 15 5 18 10 8 13 25 13 25 0 0 -5 -10 -14 -21 -21 -27 -14
-43 5 -28 33 6 10 7 23 4 28 -7 12 34 74 43 65 4 -3 0 -10 -7 -14z m389 -11
c-6 -11 -13 -20 -15 -20 -2 0 -3 9 -2 20 1 11 7 20 14 20 11 0 11 -5 3 -20z
m-1348 -22 c-7 -7 -12 -8 -12 -2 0 6 3 14 7 17 3 4 9 5 12 2 2 -3 -1 -11 -7
-17z m468 -17 c0 -5 -9 -11 -21 -14 -16 -4 -18 -3 -8 9 13 16 29 19 29 5z m75
-7 c-9 -9 -19 -13 -23 -10 -3 4 0 11 8 16 24 15 33 11 15 -6z m375 -4 c0 -5
-5 -10 -11 -10 -5 0 -7 5 -4 10 3 6 8 10 11 10 2 0 4 -4 4 -10z m405 -46 c-22
-16 -49 -19 -40 -4 3 6 0 10 -7 10 -10 0 -9 3 2 9 8 6 18 7 22 5 4 -3 8 2 8
11 0 15 2 15 17 -1 16 -15 16 -17 -2 -30z m-650 26 c-3 -5 -11 -10 -16 -10 -6
0 -7 5 -4 10 3 6 11 10 16 10 6 0 7 -4 4 -10z m-74 -22 c-4 -12 -14 -24 -22
-27 -12 -4 -12 -2 0 12 11 14 11 17 0 18 -11 0 6 11 28 18 1 1 -1 -9 -6 -21z
m-150 -41 c-13 -13 -26 -3 -16 12 3 6 11 8 17 5 6 -4 6 -10 -1 -17z m-181 3
c0 -5 -8 -10 -17 -10 -15 0 -16 2 -3 10 19 12 20 12 20 0z m100 -4 c0 -2 -7
-9 -15 -16 -13 -11 -14 -10 -9 4 5 14 24 23 24 12z m930 -6 c0 -5 -2 -10 -4
-10 -3 0 -8 5 -11 10 -3 6 -1 10 4 10 6 0 11 -4 11 -10z m-770 -15 c-7 -8 -18
-15 -24 -15 -6 0 -2 7 8 15 25 19 32 19 16 0z m-434 -10 c-10 -8 -24 -11 -32
-8 -21 8 -10 18 22 20 26 1 27 0 10 -12z m-268 -12 c-10 -2 -18 -9 -18 -15 0
-6 -3 -9 -6 -5 -10 10 6 27 24 26 15 -1 15 -2 0 -6z m1252 -3 c0 -5 -12 -10
-27 -9 l-28 1 25 8 c14 4 26 8 28 9 1 1 2 -3 2 -9z m-60 -24 c0 -2 -7 -6 -15
-10 -8 -3 -15 -1 -15 4 0 6 7 10 15 10 8 0 15 -2 15 -4z m155 -6 c-3 -5 -18
-10 -33 -9 l-27 1 25 8 c35 11 42 11 35 0z m-1140 -20 c-28 -12 -47 -12 -40 0
3 6 18 10 33 9 24 0 25 -1 7 -9z m595 6 c0 -3 -4 -8 -10 -11 -5 -3 -10 -1 -10
4 0 6 5 11 10 11 6 0 10 -2 10 -4z m335 -14 c-3 -3 -11 0 -18 7 -9 10 -8 11 6
5 10 -3 15 -9 12 -12z m-324 -45 c-10 -9 -11 -8 -5 6 3 10 9 15 12 12 3 -3 0
-11 -7 -18z m-351 -6 c0 -4 -12 -7 -26 -5 -38 4 -42 14 -6 14 18 0 32 -4 32
-9z m-277 -16 c-3 -9 -8 -14 -10 -11 -3 3 -2 9 2 15 9 16 15 13 8 -4z m997
-20 c0 -8 -6 -15 -13 -15 -13 0 -53 -40 -50 -50 1 -3 -7 -7 -18 -7 -34 -3 -21
41 13 45 16 2 30 11 33 23 7 22 35 26 35 4z m-710 -15 c0 -5 -5 -10 -11 -10
-5 0 -7 5 -4 10 3 6 8 10 11 10 2 0 4 -4 4 -10z m615 0 c-3 -5 -11 -10 -16
-10 -6 0 -7 5 -4 10 3 6 11 10 16 10 6 0 7 -4 4 -10z m-375 -20 c0 -5 -4 -10
-10 -10 -5 0 -10 5 -10 10 0 6 5 10 10 10 6 0 10 -4 10 -10z m351 -23 c-10 -9
-11 -8 -5 6 3 10 9 15 12 12 3 -3 0 -11 -7 -18z m-787 -2 c-4 -8 -8 -15 -10
-15 -2 0 -4 7 -4 15 0 8 4 15 10 15 5 0 7 -7 4 -15z m186 11 c0 -3 -4 -8 -10
-11 -5 -3 -10 -1 -10 4 0 6 5 11 10 11 6 0 10 -2 10 -4z m-10 -30 c0 -2 -7 -6
-15 -10 -8 -3 -15 -1 -15 4 0 6 7 10 15 10 8 0 15 -2 15 -4z m300 -6 c0 -5 -5
-10 -11 -10 -5 0 -7 5 -4 10 3 6 8 10 11 10 2 0 4 -4 4 -10z m-519 -23 c-10
-9 -11 -8 -5 6 3 10 9 15 12 12 3 -3 0 -11 -7 -18z m69 -3 c0 -8 -5 -12 -10
-9 -6 4 -8 11 -5 16 9 14 15 11 15 -7z m369 -9 c1 15 4 16 13 7 10 -10 10 -15
-2 -22 -22 -14 -40 -12 -40 3 0 23 14 29 21 10 7 -17 8 -17 8 2z m-889 -9 c0
-3 -4 -8 -10 -11 -5 -3 -10 -1 -10 4 0 6 5 11 10 11 6 0 10 -2 10 -4z m840
-82 c0 -8 -5 -12 -10 -9 -6 4 -8 11 -5 16 9 14 15 11 15 -7z m-363 -10 c-3 -3
-12 -4 -19 -1 -8 3 -5 6 6 6 11 1 17 -2 13 -5z m327 0 c23 -9 20 -24 -4 -24
-11 0 -20 7 -20 15 0 17 2 18 24 9z m-731 -34 c-3 -11 -9 -20 -15 -20 -5 0 -4
9 2 20 6 11 12 20 14 20 2 0 2 -9 -1 -20z m865 -4 c-12 -9 -14 -16 -7 -23 7
-7 4 -12 -10 -16 -32 -8 -34 9 -5 32 15 12 29 21 33 21 3 0 -2 -6 -11 -14z
m-554 -46 c-45 -45 -49 -56 -21 -51 5 1 7 -4 5 -11 -3 -7 -12 -14 -21 -16 -12
-2 -15 1 -11 12 3 9 1 16 -5 16 -11 0 5 23 42 62 10 11 21 17 25 14 3 -4 -3
-15 -14 -26z m300 5 c3 -8 1 -15 -3 -15 -5 0 -11 7 -15 15 -3 8 -1 15 3 15 5
0 11 -7 15 -15z m-449 -5 c-3 -5 -12 -10 -18 -10 -7 0 -6 4 3 10 19 12 23 12
15 0z m355 0 c-20 -13 -43 -13 -35 0 3 6 16 10 28 10 18 0 19 -2 7 -10z m575
-10 c-3 -5 -12 -10 -18 -10 -7 0 -6 4 3 10 19 12 23 12 15 0z m121 -27 c-10
-10 -19 5 -10 18 6 11 8 11 12 0 2 -7 1 -15 -2 -18z m-867 -4 c-16 -10 -23 -4
-14 10 3 6 11 8 17 5 6 -4 5 -9 -3 -15z m731 -23 c0 -3 -4 -8 -10 -11 -5 -3
-10 -1 -10 4 0 6 5 11 10 11 6 0 10 -2 10 -4z m-755 -26 c3 -5 1 -10 -4 -10
-6 0 -11 5 -11 10 0 6 2 10 4 10 3 0 8 -4 11 -10z m960 0 c-3 -5 -11 -10 -16
-10 -6 0 -7 5 -4 10 3 6 11 10 16 10 6 0 7 -4 4 -10z m-155 -19 c0 -10 -26 -9
-36 2 -4 4 2 7 14 7 12 0 22 -4 22 -9z m-675 -40 c3 -5 0 -13 -6 -17 -7 -4 -9
-3 -5 4 3 5 0 13 -6 15 -9 4 -10 6 -1 6 6 1 14 -3 18 -8z m-701 -25 c-4 -11 0
-13 17 -9 15 4 20 3 15 -5 -10 -16 -46 -15 -46 1 0 12 9 27 16 27 2 0 1 -6 -2
-14z m-154 -16 c0 -5 -5 -10 -11 -10 -5 0 -7 5 -4 10 3 6 8 10 11 10 2 0 4 -4
4 -10z m500 6 c0 -2 -9 -6 -20 -9 -11 -3 -20 -1 -20 4 0 5 9 9 20 9 11 0 20
-2 20 -4z m960 -10 c0 -2 -7 -7 -16 -10 -8 -3 -12 -2 -9 4 6 10 25 14 25 6z
m163 -26 c-3 -11 -9 -20 -14 -20 -11 0 -11 3 -3 24 9 23 23 20 17 -4z m-578
-10 c-3 -5 -11 -10 -16 -10 -6 0 -7 5 -4 10 3 6 11 10 16 10 6 0 7 -4 4 -10z
m622 4 c-3 -3 -12 -4 -19 -1 -8 3 -5 6 6 6 11 1 17 -2 13 -5z m-565 -16 c-13
-6 -21 -17 -18 -24 2 -6 -4 -14 -14 -17 -31 -8 -33 30 -1 42 36 13 61 12 33
-1z m618 -8 c0 -13 -7 -20 -20 -20 -18 0 -19 3 -10 20 6 11 15 20 20 20 6 0
10 -9 10 -20z m-690 -10 c0 -5 -4 -10 -10 -10 -5 0 -10 -6 -10 -14 0 -7 -7
-19 -16 -27 -13 -11 -13 -7 2 24 17 35 34 49 34 27z m765 -10 c3 -5 1 -10 -4
-10 -6 0 -11 5 -11 10 0 6 2 10 4 10 3 0 8 -4 11 -10z m-515 -21 c0 -6 -4 -7
-10 -4 -5 3 -10 11 -10 16 0 6 5 7 10 4 6 -3 10 -11 10 -16z m-693 5 c-3 -3
-12 -4 -19 -1 -8 3 -5 6 6 6 11 1 17 -2 13 -5z m1137 -21 c4 -15 3 -29 -3 -33
-7 -4 -6 -13 4 -26 19 -25 19 -35 0 -28 -8 3 -17 22 -21 42 -3 21 -8 45 -11
55 -3 10 1 17 10 17 8 0 18 -12 21 -27z m-1037 -3 c-3 -11 -1 -22 4 -25 13 -9
-14 -45 -33 -45 -10 0 -18 5 -18 10 0 6 5 10 11 10 6 0 8 7 5 16 -4 10 1 25
10 35 22 24 28 24 21 -1z m583 -14 c0 -8 -7 -19 -15 -26 -10 -9 -15 -9 -15 -1
0 6 -8 11 -17 11 -15 0 -13 4 7 19 26 20 40 19 40 -3z m-422 -6 c3 -7 0 -10
-7 -6 -6 4 -11 1 -11 -8 0 -9 -4 -16 -10 -16 -11 0 -14 33 -3 44 9 9 26 2 31
-14z m-433 -30 c-3 -5 -12 -10 -18 -10 -7 0 -6 4 3 10 19 12 23 12 15 0z m810
-30 c-10 -11 -21 -17 -24 -14 -3 3 3 12 13 20 28 20 32 17 11 -6z m-855 -10
c0 -5 -7 -10 -16 -10 -8 0 -12 5 -9 10 3 6 10 10 16 10 5 0 9 -4 9 -10z m816
-9 c0 -11 -4 -17 -8 -15 -4 3 -8 12 -8 20 0 8 4 14 8 14 4 0 8 -9 8 -19z m427
-11 c-12 -10 -24 -16 -27 -13 -3 3 4 14 16 25 28 24 38 14 11 -12z m-186 -2
c-3 -8 -6 -5 -6 6 -1 11 2 17 5 13 3 -3 4 -12 1 -19z m-267 -12 c0 -3 -4 -8
-10 -11 -5 -3 -10 -1 -10 4 0 6 5 11 10 11 6 0 10 -2 10 -4z m190 -6 c0 -5 -7
-10 -15 -10 -8 0 -15 5 -15 10 0 6 7 10 15 10 8 0 15 -4 15 -10z m-1319 -23
c-10 -9 -11 -8 -5 6 3 10 9 15 12 12 3 -3 0 -11 -7 -18z m1559 -18 c0 -5 -7
-9 -15 -9 -8 0 -15 7 -15 15 0 9 6 12 15 9 8 -4 15 -10 15 -15z m137 15 c-3
-3 -12 -4 -19 -1 -8 3 -5 6 6 6 11 1 17 -2 13 -5z m-187 -14 c0 -5 -2 -10 -4
-10 -3 0 -8 5 -11 10 -3 6 -1 10 4 10 6 0 11 -4 11 -10z m-1440 -10 c0 -5 -2
-10 -4 -10 -3 0 -8 5 -11 10 -3 6 -1 10 4 10 6 0 11 -4 11 -10z m1129 -31
c-19 -12 -24 -2 -8 17 9 11 14 13 17 4 3 -7 -2 -16 -9 -21z m-684 11 c-3 -5
-11 -10 -16 -10 -6 0 -7 5 -4 10 3 6 11 10 16 10 6 0 7 -4 4 -10z m199 2 c3
-5 -1 -9 -9 -9 -8 0 -12 4 -9 9 3 4 7 8 9 8 2 0 6 -4 9 -8z m500 -43 c-6 -11
-44 -12 -44 -1 0 4 11 8 25 8 14 1 22 -2 19 -7z m-1244 -29 c0 -9 -48 -1 -55
9 -2 4 9 5 26 3 16 -2 29 -8 29 -12z m638 8 c-3 -7 -13 -15 -24 -17 -16 -3
-17 -1 -5 13 16 19 34 21 29 4z m339 6 c-3 -3 -12 -4 -19 -1 -8 3 -5 6 6 6 11
1 17 -2 13 -5z m-887 -24 c0 -5 -4 -10 -10 -10 -5 0 -10 5 -10 10 0 6 5 10 10
10 6 0 10 -4 10 -10z m1450 -15 c-7 -8 -16 -15 -21 -15 -5 0 -1 8 9 18 20 22
31 19 12 -3z m-1610 -9 c0 -2 -11 -11 -25 -20 -21 -14 -25 -14 -25 -2 0 8 8
17 18 19 25 7 32 7 32 3z m177 -18 c-3 -8 -6 -5 -6 6 -1 11 2 17 5 13 3 -3 4
-12 1 -19z m407 -2 c-5 -12 -46 -36 -62 -36 -9 0 51 49 60 50 4 0 5 -6 2 -14z
m56 -6 c0 -10 -9 -24 -20 -30 -14 -7 -20 -7 -20 0 0 5 7 10 15 10 8 0 15 9 15
20 0 11 2 20 5 20 3 0 5 -9 5 -20z m280 0 c0 -5 -5 -10 -11 -10 -5 0 -7 5 -4
10 3 6 8 10 11 10 2 0 4 -4 4 -10z m-805 -50 c3 -5 1 -10 -4 -10 -6 0 -11 5
-11 10 0 6 2 10 4 10 3 0 8 -4 11 -10z m425 0 c0 -5 -5 -10 -11 -10 -5 0 -7 5
-4 10 3 6 8 10 11 10 2 0 4 -4 4 -10z m-600 -11 c0 -6 9 -8 20 -4 11 4 20 2
20 -4 0 -12 -14 -14 -47 -5 -13 4 -20 10 -17 15 7 12 24 11 24 -2z m376 -4
c-3 -8 -1 -15 5 -15 6 0 8 -4 4 -10 -3 -5 -13 -2 -23 8 -16 15 -16 18 -2 24
22 10 23 9 16 -7z m-96 1 c0 -3 -4 -8 -10 -11 -5 -3 -10 -1 -10 4 0 6 5 11 10
11 6 0 10 -2 10 -4z m365 -6 c3 -5 1 -10 -4 -10 -6 0 -11 5 -11 10 0 6 2 10 4
10 3 0 8 -4 11 -10z m214 -34 c-9 -8 -10 -7 -5 7 3 10 7 24 7 30 1 7 3 4 6 -7
3 -10 -1 -23 -8 -30z m871 40 c0 -2 -7 -9 -15 -16 -13 -11 -14 -10 -9 4 5 14
24 23 24 12z m-308 -28 c-7 -7 -12 -8 -12 -2 0 14 12 26 19 19 2 -3 -1 -11 -7
-17z m-1159 -23 c4 -8 2 -17 -3 -20 -6 -4 -10 3 -10 14 0 25 6 27 13 6z m112
-23 c-3 -3 -11 0 -18 7 -9 10 -8 11 6 5 10 -3 15 -9 12 -12z m-50 -32 c-3 -5
-12 -10 -18 -10 -7 0 -6 4 3 10 19 12 23 12 15 0z m433 -26 c-10 -10 -28 6
-28 24 0 15 1 15 17 -1 9 -9 14 -19 11 -23z m-793 -4 c-3 -5 -11 -10 -16 -10
-6 0 -7 5 -4 10 3 6 11 10 16 10 6 0 7 -4 4 -10z m747 -12 c-7 -7 -12 -8 -12
-2 0 14 12 26 19 19 2 -3 -1 -11 -7 -17z m-852 -2 c0 -3 -4 -8 -10 -11 -5 -3
-10 -1 -10 4 0 6 5 11 10 11 6 0 10 -2 10 -4z m210 -29 c0 -2 -9 -12 -20 -22
-24 -21 -27 -14 -4 9 15 15 24 20 24 13z m30 -7 c0 -5 -2 -10 -4 -10 -3 0 -8
5 -11 10 -3 6 -1 10 4 10 6 0 11 -4 11 -10z m-80 -36 c0 -10 -6 -14 -14 -11
-8 3 -19 0 -25 -7 -9 -11 -3 -13 29 -11 21 1 37 -2 34 -7 -7 -11 -76 -40 -82
-33 -3 2 7 9 22 14 35 14 33 18 -6 14 l-33 -4 33 30 c37 35 42 37 42 15z
m1437 10 c-3 -3 -12 -4 -19 -1 -8 3 -5 6 6 6 11 1 17 -2 13 -5z m146 -9 c-3
-9 -8 -14 -10 -11 -3 3 -2 9 2 15 9 16 15 13 8 -4z m-1137 -23 c-7 -12 -46
-23 -46 -13 0 9 43 31 49 25 1 -1 0 -7 -3 -12z m-630 -79 c-11 -11 -19 6 -11
24 8 17 8 17 12 0 3 -10 2 -21 -1 -24z m-92 18 c3 -5 -1 -14 -9 -21 -12 -10
-15 -9 -16 6 0 14 -4 12 -13 -9 -7 -15 -16 -24 -20 -20 -4 4 -4 0 -1 -9 4 -11
-3 -20 -24 -29 -17 -8 -31 -17 -31 -21 0 -4 -15 -15 -32 -24 l-33 -16 28 29
c15 16 25 32 21 35 -7 7 96 88 113 88 6 0 14 -4 17 -9z m50 -45 c-3 -8 -14
-16 -26 -19 -19 -5 -19 -5 -2 14 20 22 36 25 28 5z m1204 -46 c-7 -11 -15 -15
-17 -9 -2 6 3 15 10 20 20 12 21 11 7 -11z m-1218 -10 c0 -5 -5 -10 -11 -10
-5 0 -7 5 -4 10 3 6 8 10 11 10 2 0 4 -4 4 -10z m1525 -10 c-3 -5 -11 -10 -16
-10 -6 0 -7 5 -4 10 3 6 11 10 16 10 6 0 7 -4 4 -10z m-1508 -32 c-3 -8 -6 -5
-6 6 -1 11 2 17 5 13 3 -3 4 -12 1 -19z m1457 6 c3 -8 2 -12 -4 -9 -6 3 -10
10 -10 16 0 14 7 11 14 -7z m-1464 -14 c20 -20 20 -20 1 -20 -11 0 -23 5 -26
10 -4 6 -11 8 -16 5 -10 -7 -12 8 -2 18 11 11 22 8 43 -13z m1670 10 c-8 -5
-19 -10 -25 -10 -5 0 -3 5 5 10 8 5 20 10 25 10 6 0 3 -5 -5 -10z m-1820 -4
c0 -3 -4 -8 -10 -11 -5 -3 -10 -1 -10 4 0 6 5 11 10 11 6 0 10 -2 10 -4z
m-280 -25 c0 -12 -20 -25 -27 -18 -7 7 6 27 18 27 5 0 9 -4 9 -9z m375 -11
c-3 -5 -13 -10 -21 -10 -8 0 -12 5 -9 10 3 6 13 10 21 10 8 0 12 -4 9 -10z
m736 -13 c-10 -9 -11 -8 -5 6 3 10 9 15 12 12 3 -3 0 -11 -7 -18z m-841 4 c0
-12 -29 -23 -41 -15 -18 10 -9 24 16 24 14 0 25 -4 25 -9z m1320 -19 c0 -4 -8
-15 -17 -23 -10 -9 -24 -25 -31 -35 -12 -18 -13 -18 -9 1 9 42 12 50 22 57 13
10 35 10 35 0z m-475 -31 c-8 -13 -55 -15 -55 -2 0 5 12 11 28 13 32 4 36 3
27 -11z m-885 -1 c11 -8 7 -9 -15 -4 -37 8 -45 14 -19 14 10 0 26 -5 34 -10z
m970 -10 c0 -5 -8 -10 -17 -10 -15 0 -16 2 -3 10 19 12 20 12 20 0z m340 -64
c0 -3 -4 -8 -10 -11 -5 -3 -10 -1 -10 4 0 6 5 11 10 11 6 0 10 -2 10 -4z
m-1350 -61 c0 -8 -4 -15 -10 -15 -5 0 -10 7 -10 15 0 8 5 15 10 15 6 0 10 -7
10 -15z m1544 6 c4 -5 -3 -7 -14 -4 -23 6 -26 13 -6 13 8 0 17 -4 20 -9z
m-1654 -21 c0 -5 -2 -10 -4 -10 -3 0 -8 5 -11 10 -3 6 -1 10 4 10 6 0 11 -4
11 -10z m1386 -27 c-10 -10 -19 5 -10 18 6 11 8 11 12 0 2 -7 1 -15 -2 -18z
m-688 -32 c3 -8 -3 -12 -14 -9 -23 4 -31 27 -8 24 10 -2 20 -8 22 -15z m605
-6 c-3 -8 -12 -15 -19 -15 -12 0 -12 4 -4 20 12 23 32 18 23 -5z m-1594 -37
c-1 -7 1 -21 6 -31 11 -26 -4 -35 -20 -13 -8 10 -26 19 -40 19 -34 0 -26 22 8
22 14 1 29 4 33 8 11 10 15 9 13 -5z m271 -9 c0 -5 -4 -9 -10 -9 -5 0 -10 7
-10 16 0 8 5 12 10 9 6 -3 10 -10 10 -16z m960 11 c0 -5 -7 -10 -16 -10 -8 0
-12 5 -9 10 3 6 10 10 16 10 5 0 9 -4 9 -10z m412 -12 c-9 -9 -15 -9 -24 1 -9
10 -9 12 -1 7 6 -3 15 -1 18 5 4 5 10 8 13 4 3 -3 0 -11 -6 -17z m-1567 -18
c3 -6 -1 -7 -9 -4 -18 7 -21 14 -7 14 6 0 13 -4 16 -10z m1649 -5 c-4 -8 -11
-15 -16 -15 -6 0 -5 6 2 15 7 8 14 15 16 15 2 0 1 -7 -2 -15z m-384 -19 c0
-11 -19 -15 -25 -6 -3 5 1 10 9 10 9 0 16 -2 16 -4z m130 -81 c-7 -8 -18 -15
-24 -15 -6 0 -2 7 8 15 25 19 32 19 16 0z m267 -25 c-2 -24 -12 -26 -21 -5 -3
8 -1 15 5 15 6 0 7 5 3 12 -4 6 -3 8 4 4 6 -3 10 -15 9 -26z m-1797 -4 c0 -2
-7 -7 -16 -10 -8 -3 -12 -2 -9 4 6 10 25 14 25 6z m269 1 c-2 -1 -13 -9 -24
-17 -19 -14 -19 -14 -6 3 7 9 18 17 24 17 6 0 8 -1 6 -3z m1111 -11 c0 -8 -5
-18 -10 -21 -6 -4 -10 -16 -8 -27 2 -12 -3 -23 -11 -26 -8 -3 -11 0 -7 6 4 6
-2 10 -13 9 -11 0 -18 -4 -15 -9 2 -4 -5 -12 -17 -18 -15 -8 -19 -9 -15 -1 10
16 -6 14 -32 -5 -12 -8 -28 -14 -34 -12 -17 6 41 43 89 57 32 9 44 18 49 36 7
27 24 34 24 11z m-1195 -6 c-3 -5 -11 -10 -16 -10 -6 0 -7 5 -4 10 3 6 11 10
16 10 6 0 7 -4 4 -10z m-150 -10 c3 -5 -1 -10 -9 -10 -8 0 -18 5 -21 10 -3 6
1 10 9 10 8 0 18 -4 21 -10z m165 -20 c0 -5 -7 -10 -16 -10 -8 0 -12 5 -9 10
3 6 10 10 16 10 5 0 9 -4 9 -10z m37 -32 c-2 -7 -12 -12 -22 -10 -10 2 -14 -1
-10 -7 3 -6 2 -11 -3 -11 -18 0 -21 29 -4 33 32 9 44 7 39 -5z m-702 -68 c4
-6 -5 -10 -19 -10 -14 0 -26 5 -26 10 0 6 9 10 19 10 11 0 23 -4 26 -10z m555
5 c0 -2 -6 -8 -13 -14 -10 -8 -14 -7 -14 2 0 8 6 14 14 14 7 0 13 -1 13 -2z
m740 -20 c-7 -8 -16 -12 -21 -9 -13 8 -1 24 18 24 13 0 13 -3 3 -15z m-877
-12 c-7 -2 -19 -2 -25 0 -7 3 -2 5 12 5 14 0 19 -2 13 -5z m-216 -69 c-3 -3
-12 -4 -19 -1 -8 3 -5 6 6 6 11 1 17 -2 13 -5z m287 -9 c-10 -8 -23 -15 -28
-15 -6 0 -1 7 10 15 10 8 23 15 28 15 6 0 1 -7 -10 -15z m-174 -23 c0 -4 -10
-9 -22 -9 -18 -2 -20 0 -8 7 18 12 30 13 30 2z m70 -2 c11 -8 7 -9 -15 -4 -37
8 -45 14 -19 14 10 0 26 -5 34 -10z m-380 -16 c0 -8 -5 -12 -10 -9 -6 4 -8 11
-5 16 9 14 15 11 15 -7z m-140 -4 c0 -5 -4 -10 -10 -10 -5 0 -10 5 -10 10 0 6
5 10 10 10 6 0 10 -4 10 -10z m525 -10 c3 -5 1 -10 -4 -10 -6 0 -11 5 -11 10
0 6 2 10 4 10 3 0 8 -4 11 -10z m650 -9 c-17 -16 -65 -25 -65 -11 0 6 4 9 9 6
5 -4 20 -2 33 3 30 13 34 13 23 2z m195 -22 c0 -14 -37 -10 -43 4 -4 10 2 13
19 9 13 -2 24 -8 24 -13z m350 -35 c0 -19 15 -18 46 2 30 20 50 7 39 -24 -5
-17 -14 -21 -46 -19 -28 1 -44 7 -50 19 -5 10 -7 18 -4 18 3 0 0 10 -6 23 -11
20 -11 21 4 8 10 -7 17 -20 17 -27z m140 32 c0 -2 -7 -7 -16 -10 -8 -3 -12 -2
-9 4 6 10 25 14 25 6z m-303 -101 c-12 -19 -28 -35 -34 -35 -21 0 -15 38 6 45
11 3 22 13 25 21 3 8 10 13 16 9 6 -3 0 -20 -13 -40z m-133 -9 c10 -3 16 -12
13 -20 -3 -8 2 -16 14 -19 12 -3 17 -11 13 -20 -3 -8 -1 -18 5 -22 18 -11 12
-23 -8 -18 -12 3 -24 -3 -33 -16 -8 -11 -23 -20 -34 -19 -10 0 -36 -3 -56 -7
-24 -4 -38 -3 -38 3 0 6 9 8 19 5 13 -3 25 3 36 20 9 14 26 27 38 29 16 2 22
10 23 31 1 23 -4 29 -28 34 -35 7 -43 18 -26 37 10 11 16 12 28 2 8 -7 23 -16
34 -20z m-509 -6 c-3 -5 -14 -10 -23 -9 -14 0 -13 2 3 9 27 11 27 11 20 0z
m819 -6 c25 -10 19 -31 -9 -31 -28 0 -27 -1 -19 21 7 18 7 18 28 10z m-1604
-8 c0 -3 -4 -8 -10 -11 -5 -3 -10 -1 -10 4 0 6 5 11 10 11 6 0 10 -2 10 -4z
m1484 -11 c-4 -8 -11 -15 -16 -15 -6 0 -5 6 2 15 7 8 14 15 16 15 2 0 1 -7 -2
-15z m11 -25 c-3 -5 -12 -10 -18 -10 -7 0 -6 4 3 10 19 12 23 12 15 0z m-645
-11 c0 -5 5 -7 10 -4 6 3 10 0 10 -8 0 -8 -9 -14 -20 -13 -11 0 -20 4 -20 9 0
4 0 12 0 17 0 6 5 10 10 10 6 0 10 -5 10 -11z m260 -69 c0 -5 -9 -10 -21 -10
-11 0 -17 5 -14 10 3 6 13 10 21 10 8 0 14 -4 14 -10z m-210 -31 c0 -12 -5
-16 -15 -13 -8 4 -15 15 -15 25 0 12 5 16 15 13 8 -4 15 -15 15 -25z m-299 -6
c12 -15 12 -16 -4 -10 -10 4 -28 7 -40 8 -21 0 -21 1 -2 9 29 12 31 12 46 -7z
m396 -40 c-8 -7 -37 9 -31 19 3 5 12 4 20 -3 8 -6 13 -14 11 -16z m-47 -3 c0
-5 -8 -10 -17 -10 -15 0 -16 2 -3 10 19 12 20 12 20 0z"/>
<path d="M2107 4551 c3 -12 1 -21 -6 -21 -6 0 -11 -6 -11 -12 0 -15 39 -68 40
-54 0 5 -8 18 -17 29 -18 20 -18 20 10 2 15 -10 32 -25 37 -34 8 -14 9 -13 10
6 0 12 -7 28 -15 37 -8 8 -15 19 -15 24 0 5 -9 17 -19 26 -19 17 -19 17 -14
-3z"/>
<path d="M4985 4500 c-3 -5 -2 -10 4 -10 5 0 13 5 16 10 3 6 2 10 -4 10 -5 0
-13 -4 -16 -10z"/>
<path d="M2110 4425 c0 -34 46 -114 60 -105 9 5 9 9 1 14 -13 8 -15 26 -2 26
5 0 14 -13 21 -30 14 -34 41 -42 33 -10 -3 11 -9 20 -12 20 -4 0 -8 6 -8 13 0
6 -4 24 -8 38 -4 16 -2 30 4 33 6 4 11 12 11 17 0 6 -7 4 -15 -5 -8 -8 -15
-20 -15 -26 0 -6 -8 -19 -17 -28 -16 -16 -16 -16 -10 1 3 9 3 17 -2 17 -14 0
-20 39 -7 44 6 2 1 3 -11 3 -16 -1 -23 -7 -23 -22z"/>
<path d="M5561 4438 c-1 -9 3 -19 8 -22 11 -7 48 21 39 30 -4 4 -14 2 -22 -5
-11 -9 -15 -9 -19 1 -4 9 -6 7 -6 -4z"/>
<path d="M4852 4408 c-14 -14 -16 -38 -2 -38 9 0 30 31 30 44 0 10 -15 7 -28
-6z"/>
<path d="M5506 4395 c-3 -8 -1 -15 4 -15 6 0 10 7 10 15 0 8 -2 15 -4 15 -2 0
-6 -7 -10 -15z"/>
<path d="M1981 4354 c0 -11 3 -14 6 -6 3 7 2 16 -1 19 -3 4 -6 -2 -5 -13z"/>
<path d="M2220 4356 c0 -9 30 -14 35 -6 4 6 -3 10 -14 10 -12 0 -21 -2 -21 -4z"/>
<path d="M2170 4293 c0 -5 7 -17 15 -27 8 -11 15 -28 15 -38 0 -12 7 -18 21
-18 23 0 23 0 -10 53 -21 33 -41 49 -41 30z"/>
<path d="M2230 4265 c0 -8 2 -15 4 -15 2 0 6 7 10 15 3 8 1 15 -4 15 -6 0 -10
-7 -10 -15z"/>
<path d="M5564 4226 c5 -15 4 -17 -8 -7 -17 14 -29 0 -20 -23 8 -20 18 -20 34
-2 9 11 9 19 0 33 -11 17 -11 17 -6 -1z"/>
<path d="M5570 4151 c0 -25 6 -27 13 -6 4 8 2 17 -3 20 -6 4 -10 -3 -10 -14z"/>
<path d="M1910 4153 c0 -6 -10 -9 -22 -7 -13 2 -17 2 -10 -2 20 -9 14 -27 -8
-21 -11 3 -18 1 -14 -4 3 -5 -2 -9 -10 -9 -8 0 -19 -6 -23 -14 -4 -8 -21 -16
-38 -18 l-30 -4 25 -12 c23 -11 22 -12 -13 -7 -36 6 -38 5 -32 -14 5 -16 2
-21 -10 -21 -14 0 -16 -6 -10 -27 l7 -28 -24 22 c-17 16 -31 20 -52 16 -25 -5
-28 -4 -21 16 3 11 2 21 -3 21 -14 0 -23 -43 -11 -50 16 -10 -1 -40 -18 -33
-11 4 -14 2 -9 -5 11 -17 -10 -15 -28 4 -14 14 -19 12 -53 -22 -21 -20 -61
-54 -90 -75 -50 -37 -52 -40 -42 -68 10 -27 13 -29 47 -24 63 10 142 59 142
89 0 24 59 69 93 71 53 2 61 7 102 53 22 25 69 73 105 107 35 34 62 65 57 69
-4 4 -7 3 -7 -3z m-217 -175 c8 -24 -5 -38 -34 -38 -33 0 -36 6 -12 32 19 21
39 23 46 6z m-113 -55 c0 -17 -24 -43 -40 -43 -24 0 -25 5 -3 34 15 20 43 26
43 9z"/>
<path d="M1959 3959 c-6 -12 -8 -30 -5 -42 3 -11 0 -30 -7 -41 -6 -12 -11 -24
-12 -28 0 -4 -10 -15 -23 -23 -23 -17 -57 -73 -49 -81 2 -3 16 10 31 28 14 18
33 40 41 49 8 9 15 20 15 26 0 6 6 16 14 22 7 6 12 23 10 37 -1 15 2 37 6 50
12 30 -5 32 -21 3z"/>
<path d="M2075 3970 c-3 -5 1 -10 9 -10 9 0 16 5 16 10 0 6 -4 10 -9 10 -6 0
-13 -4 -16 -10z"/>
<path d="M5596 3874 c-3 -8 0 -14 7 -14 12 0 46 19 37 21 -3 0 -13 2 -22 4 -9
2 -19 -3 -22 -11z"/>
<path d="M1835 3719 c-4 -6 -5 -12 -2 -15 2 -3 7 2 10 11 7 17 1 20 -8 4z"/>
<path d="M5601 3544 c0 -11 3 -14 6 -6 3 7 2 16 -1 19 -3 4 -6 -2 -5 -13z"/>
<path d="M5455 3120 c-9 -15 -1 -23 21 -18 15 3 16 4 1 16 -11 9 -17 10 -22 2z"/>
<path d="M5500 2990 c0 -13 7 -20 19 -20 14 0 18 5 14 20 -3 11 -12 20 -19 20
-8 0 -14 -9 -14 -20z"/>
<path d="M3543 2861 c-13 -11 -23 -24 -23 -30 0 -18 27 -1 38 25 14 29 13 29
-15 5z"/>
<path d="M5380 2840 c0 -5 5 -10 11 -10 5 0 7 5 4 10 -3 6 -8 10 -11 10 -2 0
-4 -4 -4 -10z"/>
<path d="M5300 2781 c0 -22 16 -36 24 -22 8 12 -3 41 -15 41 -5 0 -9 -9 -9
-19z"/>
<path d="M1126 2755 c5 -13 64 -49 70 -43 1 2 -15 15 -37 30 -22 16 -36 21
-33 13z"/>
<path d="M3481 2724 c0 -11 3 -14 6 -6 3 7 2 16 -1 19 -3 4 -6 -2 -5 -13z"/>
<path d="M1244 2655 c11 -8 22 -12 25 -9 6 6 -19 24 -34 24 -5 -1 -1 -7 9 -15z"/>
<path d="M5204 2254 c-23 -54 -16 -68 22 -44 25 17 30 25 26 50 -6 41 -30 38
-48 -6z"/>
<path d="M949 2233 c-13 -16 -12 -17 4 -4 9 7 17 15 17 17 0 8 -8 3 -21 -13z"/>
<path d="M840 2221 c0 -12 28 -22 35 -12 3 5 -2 12 -11 15 -21 8 -24 8 -24 -3z"/>
<path d="M938 2203 c7 -3 16 -2 19 1 4 3 -2 6 -13 5 -11 0 -14 -3 -6 -6z"/>
<path d="M983 1965 c16 -17 24 -20 33 -11 16 14 2 28 -29 32 l-24 2 20 -23z"/>
<path d="M761 1804 c0 -11 3 -14 6 -6 3 7 2 16 -1 19 -3 4 -6 -2 -5 -13z"/>
<path d="M2690 1704 c0 -14 3 -14 15 -4 8 7 15 14 15 16 0 2 -7 4 -15 4 -8 0
-15 -7 -15 -16z"/>
<path d="M4832 1658 c-14 -14 -16 -28 -2 -28 5 0 14 9 20 20 12 22 1 27 -18 8z"/>
<path d="M4717 1433 c-4 -3 -7 -17 -7 -30 0 -16 -6 -23 -20 -23 -11 0 -20 -7
-20 -15 0 -8 5 -15 11 -15 18 0 59 49 59 71 0 19 -11 25 -23 12z"/>
<path d="M4550 1261 c-7 -15 -7 -21 0 -21 12 0 25 28 17 36 -3 3 -10 -4 -17
-15z"/>
<path d="M1566 758 c-15 -17 -16 -22 -5 -29 20 -12 35 -11 48 4 8 11 7 18 -7
30 -17 15 -19 15 -36 -5z"/>
<path d="M3842 678 c-16 -16 -15 -38 1 -38 22 0 40 18 34 34 -8 19 -19 20 -35
4z"/>
<path d="M3510 557 c0 -13 -5 -28 -12 -35 -8 -8 -8 -15 0 -24 22 -28 102 -3
102 31 0 25 -32 51 -63 51 -21 0 -27 -5 -27 -23z"/>
<path d="M3319 514 c-9 -11 -5 -13 20 -11 35 2 41 12 11 20 -10 3 -24 -1 -31
-9z"/>
</g>
</svg>
